<svg width="347" height="166" viewBox="0 0 347 166" fill="none" xmlns="http://www.w3.org/2000/svg">
<path d="M5.59942 137.519C50.0142 137.519 94.4038 137.519 138.819 137.519C183.007 137.519 227.194 137.519 271.357 137.519C296.287 137.519 321.191 137.519 346.121 137.519C346.6 137.519 346.6 136.868 346.121 136.868C301.706 136.868 257.317 136.868 212.902 136.868C168.714 136.868 124.526 136.868 80.3635 136.868C55.4337 136.868 30.5292 136.868 5.59942 136.868C5.12049 136.868 5.12049 137.519 5.59942 137.519Z" fill="#E8E8E8"/>
<path d="M99.5964 136.607C97.0253 135.587 94.8323 133.958 93.3703 131.851C92.6897 130.874 92.11 129.766 91.8075 128.659C91.5302 127.551 92.0343 126.422 93.5468 126.596C94.5298 126.704 95.3112 127.269 96.017 127.79C96.1683 127.616 96.3195 127.443 96.4708 127.269C94.8323 126.357 93.5468 125.097 92.7653 123.555C92.236 122.491 91.0008 119.125 93.1182 118.799C93.3703 118.755 93.4459 118.495 93.3451 118.321C91.3285 114.738 90.8496 110.742 90.4211 106.833C90.2194 104.965 90.0178 102.706 91.7066 101.273C93.698 99.5354 96.4456 100.752 98.1092 102.228C101.21 104.987 102.823 108.917 104.461 112.414C106.175 116.084 107.663 119.82 108.747 123.642C109.982 128.072 110.637 132.611 110.36 137.15C110.335 137.563 111.091 137.563 111.116 137.15C111.671 127.855 108.419 118.842 104.31 110.372C102.621 106.898 100.706 102.424 96.7228 100.426C95.1852 99.6657 93.3199 99.4485 91.8075 100.361C90.2698 101.295 89.6901 102.945 89.5893 104.487C89.4632 106.854 89.9422 109.352 90.3707 111.676C90.7992 114.086 91.505 116.453 92.7401 118.647C92.8158 118.495 92.8914 118.321 92.967 118.169C90.7488 118.517 91.2025 121.275 91.631 122.6C92.3116 124.771 93.9501 126.617 96.1431 127.833C96.496 128.029 96.9245 127.551 96.5968 127.312C95.3869 126.444 93.8492 125.466 92.2108 126.096C90.4715 126.769 90.9504 128.507 91.4546 129.745C92.7653 133.024 95.6389 135.717 99.2688 137.15C99.6469 137.346 100.05 136.781 99.5964 136.607Z" fill="#E8E8E8"/>
<path d="M107.637 117.713C106.831 112.522 107.083 107.44 108.973 102.445C109.881 100.035 110.839 97.6457 111.771 95.2567C112.528 93.3239 113.864 89.7405 117.065 91.4127C119.359 92.6072 119.787 95.778 120.317 97.8411C120.972 100.36 121.426 102.901 121.703 105.486C122.232 110.35 122.157 115.28 121.552 120.145C120.846 125.879 119.46 131.547 117.569 137.063C117.443 137.476 118.149 137.628 118.3 137.237C121.955 126.53 123.795 115.215 122.283 104.096C121.93 101.403 121.375 98.7316 120.619 96.1254C120.039 94.1709 119.434 91.7168 117.141 90.7178C115.25 89.9142 113.435 90.696 112.427 92.1728C111.847 93.0198 111.519 93.9971 111.141 94.9093C110.587 96.3426 110.032 97.7543 109.478 99.1876C108.368 102.054 107.184 104.878 106.73 107.896C106.251 111.154 106.402 114.455 106.906 117.713C106.932 118.125 107.688 118.125 107.637 117.713Z" fill="#E8E8E8"/>
<path d="M92.4881 100.86C99.7477 112.001 105.47 124.119 106.78 136.976C106.831 137.389 107.587 137.389 107.537 136.976C106.201 124.011 100.479 111.805 93.1435 100.534C92.9166 100.165 92.2612 100.491 92.4881 100.86Z" fill="#E8E8E8"/>
<path d="M115.628 91.1087C116.233 94.9093 116.006 98.7533 115.83 102.576C115.653 106.333 115.477 110.09 115.3 113.869C114.948 121.513 114.721 129.223 113.082 136.759C113.007 137.172 113.712 137.346 113.813 136.933C115.452 129.332 115.704 121.579 116.057 113.869C116.233 109.96 116.435 106.05 116.611 102.163C116.788 98.4275 116.964 94.6704 116.359 90.9567C116.309 90.5223 115.578 90.7178 115.628 91.1087Z" fill="#E8E8E8"/>
<path d="M108.394 102.076C111.595 105.79 113.889 110.003 115.099 114.499C115.2 114.911 115.931 114.737 115.83 114.325C114.595 109.764 112.301 105.486 109.049 101.729C108.772 101.403 108.116 101.729 108.394 102.076Z" fill="#E8E8E8"/>
<path d="M120.417 97.559C118.376 100.752 116.762 104.118 115.578 107.636C115.452 108.049 116.183 108.222 116.309 107.81C117.468 104.357 119.081 101.034 121.073 97.8848C121.3 97.5373 120.644 97.1898 120.417 97.559Z" fill="#E8E8E8"/>
<path d="M93.0426 118.734C98.3613 120.601 102.773 124.011 105.571 128.333C105.797 128.702 106.453 128.376 106.226 128.007C103.327 123.533 98.7394 120.058 93.2443 118.126C92.7906 117.93 92.6141 118.56 93.0426 118.734Z" fill="#E8E8E8"/>
<path d="M100.151 104.074C99.6973 107.788 99.8989 111.502 100.706 115.172C100.806 115.584 101.537 115.411 101.437 114.998C100.655 111.393 100.479 107.723 100.907 104.074C100.958 103.661 100.201 103.661 100.151 104.074Z" fill="#E8E8E8"/>
<path d="M10.2375 136.737C9.65775 135.282 9.22923 133.762 9.02758 132.22C8.95196 131.569 8.90154 130.917 8.90154 130.244C8.90154 129.896 8.82592 129.397 8.92675 129.071C8.92675 128.941 8.95196 128.81 8.95196 128.68C9.43089 128.376 9.8342 128.419 10.1619 128.789C10.3888 128.962 10.8425 128.854 10.8173 128.55C10.7417 127.659 10.7417 126.769 10.8677 125.879C10.9433 125.444 11.0189 125.01 11.145 124.597C11.1954 124.445 11.8004 122.968 11.8508 123.034C12.0272 123.251 12.4557 123.251 12.5314 122.947C13.6153 119.103 15.5562 115.519 17.9257 112.153C18.5306 111.284 19.186 110.416 19.8414 109.569C20.5724 108.635 21.7823 107.158 22.8914 108.787C24.0258 110.437 24.3535 112.848 24.4543 114.737C24.7064 118.733 23.6477 122.708 22.1604 126.465C20.7236 130.135 18.9339 133.805 15.8587 136.694C15.531 136.998 16.0603 137.454 16.388 137.15C19.06 134.652 20.7488 131.59 22.1352 128.441C23.5972 125.075 24.782 121.578 25.1349 117.995C25.3113 116.258 25.2861 114.498 24.9836 112.761C24.7316 111.263 24.3535 109.351 23.2695 108.092C21.0261 105.529 18.4298 110.198 17.4971 111.501C14.9764 115.02 12.9347 118.755 11.8004 122.773C12.0272 122.751 12.2541 122.729 12.4809 122.686C11.8508 121.969 11.0693 122.686 10.7921 123.294C10.0107 124.923 9.85941 126.812 10.0359 128.528C10.2627 128.441 10.4644 128.376 10.6912 128.289C10.2123 127.92 9.43089 127.442 8.7503 127.725C8.0445 128.029 8.14533 128.854 8.14533 129.418C8.06971 131.959 8.54864 134.457 9.50651 136.868C9.65775 137.302 10.3888 137.128 10.2375 136.737Z" fill="#E8E8E8"/>
<path d="M21.8832 108.049C21.0261 113.174 19.5893 118.213 17.5476 123.077C15.657 127.638 12.4809 132.047 11.7751 136.912C11.7247 137.324 12.4809 137.324 12.5314 136.912C12.9095 134.327 14.069 131.938 15.2789 129.593C16.4132 127.378 17.4971 125.141 18.4298 122.86C20.3707 118.104 21.7571 113.196 22.589 108.201C22.6646 107.81 21.9336 107.636 21.8832 108.049Z" fill="#E8E8E8"/>
<path d="M14.926 115.802C15.2033 119.255 15.6066 122.687 16.136 126.118C16.2116 126.531 16.9174 126.357 16.867 125.944C16.3376 122.578 15.9343 119.19 15.6822 115.802C15.657 115.389 14.9008 115.368 14.926 115.802Z" fill="#E8E8E8"/>
<path d="M19.6397 119.689C21.6563 117.974 23.3956 116.041 24.8576 113.956C25.1097 113.587 24.4543 113.261 24.2022 113.63C22.7654 115.672 21.0765 117.539 19.1104 119.233C18.7575 119.516 19.2868 119.972 19.6397 119.689Z" fill="#E8E8E8"/>
<path d="M7.43954 136.412C5.70025 134.262 4.23825 131.96 3.12914 129.506C2.625 128.398 2.19648 127.247 1.84358 126.096C1.66713 125.488 1.49068 124.88 1.33944 124.25C1.23861 123.881 0.583228 121.47 1.49068 121.622C1.79317 121.666 2.02003 121.47 1.94441 121.231C1.31423 118.234 0.910919 115.216 0.784884 112.175C0.73447 110.785 0.709263 109.352 1.06216 108.005C1.23861 107.354 1.49068 106.594 1.99482 106.051C3.15434 104.835 4.36428 105.834 5.12049 106.746C8.75031 111.133 11.0694 116.41 12.1785 121.687C12.2541 122.1 12.9851 121.926 12.9095 121.514C12.2037 118.234 11.0441 115.064 9.4561 112.045C8.62427 110.481 7.69161 108.983 6.63291 107.549C5.92712 106.594 5.01966 105.095 3.58286 104.835C0.431986 104.27 0.0286733 109.004 0.00346627 110.677C-0.0469478 114.282 0.457193 117.909 1.2134 121.449C1.36465 121.318 1.51589 121.188 1.66713 121.058C-1.35771 120.602 1.13778 126.574 1.51589 127.595C2.70062 130.874 4.49032 133.98 6.75895 136.803C7.06143 137.085 7.71682 136.759 7.43954 136.412Z" fill="#E8E8E8"/>
<path d="M2.47376 105.507C5.29695 113.043 7.69161 120.71 9.65776 128.441C9.75859 128.854 10.4896 128.68 10.3888 128.267C8.42262 120.536 6.02795 112.87 3.20476 105.334C3.05352 104.943 2.32252 105.116 2.47376 105.507Z" fill="#E8E8E8"/>
<path d="M0.633638 115.585C3.63327 116.692 6.07836 118.582 7.64119 121.036C7.86805 121.405 8.52344 121.079 8.29657 120.71C6.65812 118.147 4.13741 116.171 1.01174 115.02C0.558017 114.868 0.179911 115.433 0.633638 115.585Z" fill="#E8E8E8"/>
<path d="M7.66641 110.046C7.01103 112.197 6.60771 114.368 6.45647 116.583C6.43127 116.996 7.18748 116.996 7.21268 116.583C7.33872 114.433 7.74203 112.305 8.39741 110.22C8.52345 109.808 7.79245 109.634 7.66641 110.046Z" fill="#E8E8E8"/>
<path d="M312.722 137.193C310.731 133.024 310.151 128.485 311.159 124.054C311.033 124.141 310.907 124.206 310.806 124.293C311.386 124.206 311.814 124.423 312.117 124.966C312.243 125.27 312.898 125.27 312.848 124.88C312.621 122.968 312.621 121.036 312.898 119.124C313.05 118.169 313.251 117.235 313.529 116.301C313.655 115.867 313.806 115.432 313.957 114.998C314.058 114.759 314.133 114.499 314.234 114.26C314.411 113.912 314.512 113.543 314.512 113.152C314.713 113.261 314.94 113.369 315.142 113.478C315.999 109.503 318.242 105.92 321.57 103.097C321.393 103.097 321.217 103.097 321.04 103.097C322.2 104.161 322.25 105.681 322.427 107.049C322.603 108.483 322.729 109.916 322.805 111.349C322.981 114.151 322.981 116.974 322.805 119.776C322.477 125.575 321.444 131.308 319.729 136.911C319.603 137.324 320.334 137.497 320.46 137.085C322.25 131.156 323.309 125.075 323.586 118.951C323.737 115.867 323.662 112.783 323.41 109.721C323.233 107.527 323.435 104.378 321.544 102.641C321.393 102.51 321.141 102.51 321.015 102.641C317.587 105.529 315.268 109.243 314.386 113.304C314.31 113.608 314.738 113.869 315.016 113.63C315.066 113.586 315.091 113.565 315.142 113.521C315.243 113.434 315.293 113.326 315.243 113.195C315.041 112.696 314.512 112.544 314.058 112.957C313.73 113.239 313.604 113.738 313.453 114.108C313.15 114.846 312.898 115.584 312.671 116.345C311.865 119.146 311.663 122.035 312.016 124.901C312.268 124.88 312.52 124.836 312.747 124.814C312.394 124.054 311.688 123.598 310.705 123.663C310.554 123.663 310.378 123.75 310.352 123.902C309.344 128.441 309.873 133.111 311.915 137.389C312.193 137.736 312.924 137.584 312.722 137.193Z" fill="#E8E8E8"/>
<path d="M323.964 119.668C324.62 115.802 326.409 112.11 329.232 109.026C329.913 108.288 330.619 107.614 331.4 106.963C331.904 106.55 333.039 105.377 333.82 106.355C334.123 106.724 334.097 107.332 334.097 107.766C334.072 109.873 333.745 112.023 333.366 114.13C331.93 122.274 328.552 130.114 323.485 137.107C323.233 137.454 323.889 137.802 324.141 137.433C328.754 131.026 331.98 123.946 333.644 116.54C334.047 114.759 334.35 112.979 334.551 111.176C334.728 109.721 335.257 107.745 334.627 106.333C333.291 103.292 329.333 107.853 328.375 108.917C325.628 112.001 323.863 115.65 323.233 119.494C323.183 119.906 323.914 120.08 323.964 119.668Z" fill="#E8E8E8"/>
<path d="M323.536 118.038C323.233 121.709 322.653 125.336 321.796 128.941C321.696 129.353 322.427 129.527 322.527 129.114C323.41 125.466 323.989 121.774 324.292 118.038C324.317 117.626 323.561 117.626 323.536 118.038Z" fill="#E8E8E8"/>
<path d="M333.266 105.79C328.98 116.149 324.846 126.531 320.839 136.977C320.687 137.368 321.418 137.541 321.57 137.15C325.552 126.704 329.686 116.323 333.997 105.964C334.148 105.573 333.417 105.399 333.266 105.79Z" fill="#E8E8E8"/>
<path d="M320.914 103.358C318.948 114.651 316.957 125.922 314.991 137.215C314.915 137.628 315.646 137.802 315.722 137.389C317.688 126.096 319.679 114.825 321.645 103.531C321.721 103.119 320.99 102.923 320.914 103.358Z" fill="#E8E8E8"/>
<path d="M314.31 113.022C315.142 117.409 315.974 121.774 316.805 126.161C316.881 126.574 317.612 126.4 317.536 125.987C316.705 121.6 315.873 117.235 315.041 112.848C314.965 112.436 314.234 112.609 314.31 113.022Z" fill="#E8E8E8"/>
<path d="M322.805 109.677C321.116 112.153 319.679 114.738 318.494 117.431C318.318 117.821 319.049 117.995 319.225 117.604C320.385 114.976 321.796 112.436 323.46 110.025C323.712 109.634 323.057 109.308 322.805 109.677Z" fill="#E8E8E8"/>
<path d="M325.981 112.24C325.981 115.976 325.981 119.733 325.981 123.468C325.981 123.881 326.737 123.881 326.737 123.468C326.737 119.733 326.737 115.976 326.737 112.24C326.737 111.828 325.981 111.828 325.981 112.24Z" fill="#E8E8E8"/>
<path d="M89.9422 145.859C91.6058 144.947 93.5972 144.665 95.4877 145.164C97.1262 145.599 98.4873 146.185 100.252 146.12C101.89 146.055 103.478 145.685 105.117 145.599C105.999 145.555 106.881 145.577 107.738 145.837C108.595 146.098 109.2 146.489 110.108 146.532C110.587 146.554 110.587 145.903 110.108 145.881C109.074 145.837 108.192 145.208 107.184 145.034C106.377 144.904 105.545 144.904 104.713 144.969C102.949 145.121 101.21 145.555 99.4452 145.468C97.6051 145.381 96.0423 144.426 94.2273 144.274C92.5637 144.143 90.9504 144.534 89.564 145.294C89.1607 145.512 89.5388 146.076 89.9422 145.859Z" fill="#E8E8E8"/>
<path d="M154.018 144.013C156.539 143.947 159.06 143.861 161.555 143.795C162.79 143.752 164.076 143.643 165.311 143.73C166.345 143.795 167.126 144.295 168.084 144.49C168.865 144.642 169.622 144.534 170.403 144.382C171.739 144.121 173.05 143.882 174.436 143.839C176.831 143.73 179.225 143.969 181.595 144.208C182.074 144.251 182.074 143.6 181.595 143.556C179.225 143.318 176.831 143.079 174.436 143.187C173.302 143.231 172.167 143.361 171.058 143.578C169.722 143.839 168.689 144.034 167.403 143.535C165.538 142.84 163.572 143.079 161.606 143.144C159.085 143.209 156.564 143.296 154.069 143.361C153.539 143.383 153.539 144.034 154.018 144.013Z" fill="#E8E8E8"/>
<path d="M244.612 165.883C247.158 166.209 249.654 165.796 252.149 165.383C253.687 165.123 255.225 164.862 256.813 164.819C258.376 164.775 259.838 165.079 261.35 165.383C262.661 165.644 263.921 165.752 265.257 165.622C266.593 165.47 267.879 165.166 269.215 165.036C272.113 164.732 274.836 165.948 277.735 165.796C278.213 165.774 278.213 165.123 277.735 165.144C275.037 165.275 272.517 164.189 269.82 164.319C268.534 164.384 267.299 164.667 266.013 164.862C264.299 165.123 262.787 165.014 261.098 164.667C258.577 164.124 256.233 164.08 253.662 164.471C250.713 164.905 247.789 165.622 244.789 165.253C244.335 165.188 244.134 165.818 244.612 165.883Z" fill="#E8E8E8"/>
<path d="M314.486 144.795C319.528 143.34 324.998 144.708 330.19 144.1C331.652 143.926 333.14 143.709 334.627 143.818C335.862 143.905 337.021 144.317 338.231 144.426C339.492 144.513 340.727 144.209 341.962 144.1C343.5 143.97 345.012 144.057 346.525 144.296C347.003 144.382 347.205 143.753 346.726 143.666C345.466 143.47 344.18 143.362 342.895 143.383C341.534 143.427 340.223 143.753 338.862 143.774C337.576 143.796 336.366 143.318 335.081 143.188C333.694 143.036 332.308 143.188 330.921 143.34C327.972 143.687 325.149 143.666 322.2 143.535C319.503 143.427 316.831 143.405 314.26 144.165C313.831 144.296 314.007 144.925 314.486 144.795Z" fill="#E8E8E8"/>
<path d="M105.999 161.583C126.795 161.583 147.616 161.583 168.412 161.583C168.891 161.583 168.891 160.931 168.412 160.931C147.616 160.931 126.795 160.931 105.999 160.931C105.52 160.931 105.52 161.583 105.999 161.583Z" fill="#161616"/>
<path d="M164.051 165.122C174.739 165.122 185.401 165.122 196.089 165.122C196.568 165.122 196.568 164.471 196.089 164.471C185.401 164.471 174.739 164.471 164.051 164.471C163.547 164.471 163.547 165.122 164.051 165.122Z" fill="#161616"/>
<path d="M245.343 154.741C256.561 154.741 267.803 154.741 279.02 154.741C279.499 154.741 279.499 154.09 279.02 154.09C267.803 154.09 256.561 154.09 245.343 154.09C244.865 154.09 244.865 154.741 245.343 154.741Z" fill="#161616"/>
<path d="M291.876 155.697C298.53 155.697 305.21 155.697 311.865 155.697C312.344 155.697 312.344 155.046 311.865 155.046C305.21 155.046 298.53 155.046 291.876 155.046C291.397 155.046 291.397 155.697 291.876 155.697Z" fill="#161616"/>
<path d="M17.85 149.095C29.7226 149.095 41.5699 149.095 53.4424 149.095C53.9213 149.095 53.9213 148.443 53.4424 148.443C41.5699 148.443 29.7226 148.443 17.85 148.443C17.3711 148.443 17.3711 149.095 17.85 149.095Z" fill="#161616"/>
<path d="M51.8039 146.728C58.3829 146.728 64.9368 146.728 71.5158 146.728C71.9947 146.728 71.9947 146.076 71.5158 146.076C64.9368 146.076 58.3829 146.076 51.8039 146.076C51.325 146.076 51.325 146.728 51.8039 146.728Z" fill="#161616"/>
<path d="M164.908 152.027C173.529 152.027 182.124 152.027 190.745 152.027C191.224 152.027 191.224 151.375 190.745 151.375C182.124 151.375 173.529 151.375 164.908 151.375C164.404 151.375 164.404 152.027 164.908 152.027Z" fill="#161616"/>
<path d="M276.02 39.4643C276.121 37.792 279.802 39.4643 280.835 39.3122C282.196 39.1168 282.499 37.8137 284.062 38.0961C285.019 38.2698 285.927 38.6607 286.935 38.5738C287.59 38.5087 288.069 38.1829 288.7 38.0309C289.683 37.792 290.666 38.0526 291.397 38.6607C291.75 38.943 292.279 38.487 291.926 38.2046C290.817 37.2925 289.431 37.0971 288.019 37.5531C286.834 37.944 286.128 37.9006 284.944 37.5966C284.364 37.4445 283.759 37.2925 283.154 37.3577C282.448 37.4445 282.171 37.7486 281.692 38.1178C280.255 39.1819 279.222 38.2046 277.709 38.0092C276.55 37.8572 275.365 38.3567 275.289 39.4643C275.239 39.8986 275.995 39.8986 276.02 39.4643Z" fill="#1E1E1E"/>
<path d="M280.331 36.1633C280.533 34.73 283.457 35.9462 284.314 36.0113C285.473 36.0982 285.75 35.5335 286.582 35.0123C288.12 34.035 289.229 35.2729 290.767 35.2078C291.195 35.1861 291.422 34.9689 291.775 34.7951C292.758 34.3173 293.716 34.2088 294.598 34.9254C294.951 35.2078 295.48 34.7517 295.127 34.4694C294.094 33.6441 292.859 33.5789 291.624 34.0567C291.069 34.2739 291.397 34.5128 290.439 34.5128C289.96 34.5128 289.355 34.187 288.876 34.0785C288.195 33.9264 287.49 33.8396 286.809 34.0785C285.7 34.4694 285.65 35.4249 284.087 35.3164C283.305 35.2729 282.625 34.8603 281.818 34.8169C280.734 34.7517 279.675 35.1426 279.524 36.1416C279.499 36.576 280.255 36.576 280.331 36.1633Z" fill="#1E1E1E"/>
<path d="M41.1666 114.716C42.2 114.064 43.0823 113.76 44.2922 114.26C44.7712 114.455 45.2249 114.673 45.7542 114.759C46.8633 114.911 47.8716 114.434 48.8547 114.064C49.7621 113.717 50.5184 113.522 51.4762 113.956C52.0056 114.195 52.4341 114.521 53.0391 114.607C54.249 114.803 56.0387 113.804 56.9966 114.607C57.3495 114.89 57.8788 114.434 57.5259 114.151C56.5933 113.37 55.4589 113.739 54.2994 113.912C53.518 114.021 53.0139 113.999 52.3081 113.652C51.9804 113.478 51.6779 113.261 51.2998 113.152C50.7956 113 50.2915 112.979 49.7621 113.065C49.0816 113.196 48.4514 113.5 47.796 113.739C46.6113 114.173 45.8299 114.151 44.6199 113.695C43.0823 113.087 42.0992 113.283 40.7128 114.151C40.4103 114.39 40.7884 114.955 41.1666 114.716Z" fill="#1E1E1E"/>
<path d="M48.4514 111.35C50.1655 109.699 53.0895 111.61 55.2069 111.219C55.9883 111.067 56.4924 110.85 57.299 111.089C57.778 111.241 58.1813 111.523 58.6602 111.676C59.5929 111.958 60.4751 111.828 61.3322 111.48C61.7607 111.306 61.3826 110.742 60.9541 110.915C59.1896 111.654 58.4082 110.503 56.8705 110.286C56.3916 110.22 56.0135 110.329 55.5598 110.459C54.7027 110.676 54.0473 110.698 53.1399 110.524C51.3754 110.199 49.3084 109.547 47.8716 110.915C47.5943 111.198 48.1237 111.654 48.4514 111.35Z" fill="#1E1E1E"/>
<path d="M102.747 22.1774C100.781 20.8961 102.092 18.0294 104.613 18.5072C105.646 18.7026 106.528 19.4193 106.528 20.3749C106.528 21.5042 105.419 22.5032 104.134 22.5684C103.655 22.5901 103.655 23.2416 104.134 23.2199C105.747 23.1547 107.108 22.0471 107.285 20.6572C107.436 19.3107 106.302 18.1814 104.814 17.8991C101.411 17.2258 99.7729 21.0698 102.369 22.7638C102.747 23.0027 103.125 22.4381 102.747 22.1774Z" fill="#1E1E1E"/>
<path d="M26.4204 91.7388C25.1601 90.5443 26.3448 88.416 28.2858 88.872C30.63 89.415 30.025 92.26 27.6808 92.2383C27.2018 92.2383 27.2018 92.8898 27.6808 92.8898C29.0924 92.8898 30.3779 91.9777 30.5796 90.7615C30.7812 89.6322 29.899 88.6549 28.6891 88.2857C25.9415 87.4604 24.0258 90.4357 25.8911 92.1948C26.2188 92.4989 26.7481 92.0428 26.4204 91.7388Z" fill="#8E8E8E"/>
<path d="M156.413 84.941C155.48 85.5274 154.775 86.3092 154.472 87.2648C154.119 88.3941 155.027 89.9795 154.144 90.8265C153.59 91.3694 152.632 91.7386 152.38 92.477C152.279 92.7376 152.304 92.9765 152.405 93.2372C152.531 93.6064 152.708 93.6715 152.708 94.0624C152.708 94.714 152.052 94.9963 151.422 95.2786C150.994 95.4741 151.372 96.0387 151.8 95.8433C152.607 95.4741 153.64 94.866 153.565 93.9756C153.514 93.4109 152.884 93.0634 153.237 92.4553C153.464 92.0861 154.044 91.8038 154.371 91.5215C155.001 91.022 155.43 90.5007 155.329 89.7406C155.203 88.9153 154.926 88.2855 155.178 87.4385C155.43 86.635 155.985 85.9835 156.766 85.5057C157.169 85.2668 156.791 84.7021 156.413 84.941Z" fill="#8E8E8E"/>
<path d="M160.119 87.1129C157.976 86.9392 157.724 89.2195 157.825 90.5443C157.875 91.2827 157.926 92.0211 157.396 92.6292C157.119 92.9332 156.716 93.1721 156.539 93.5413C156.388 93.8671 156.489 94.1277 156.564 94.4752C156.791 95.5393 156.111 96.2343 155.279 96.9293C154.926 97.2333 155.455 97.6894 155.808 97.3853C156.464 96.8207 157.22 96.1691 157.396 95.3439C157.472 94.953 157.295 94.6489 157.295 94.2797C157.295 93.6065 157.774 93.3676 158.127 92.8898C158.682 92.1948 158.657 91.3478 158.581 90.5443C158.505 89.6104 158.43 87.6341 160.119 87.7644C160.623 87.8079 160.597 87.1563 160.119 87.1129Z" fill="#8E8E8E"/>
<path d="M162.412 6.8011C162.513 5.30258 165.437 5.86724 166.521 5.36774C167.303 4.99854 167.756 4.32529 168.185 3.69548C168.437 3.32628 168.664 2.91364 168.991 2.58788C169.647 1.93635 170.403 2.02322 171.31 1.95807C172.495 1.8712 173.453 1.37169 174.184 0.568141C174.487 0.242377 173.957 -0.213693 173.655 0.112071C172.949 0.893905 172.067 1.2631 170.932 1.32826C170.378 1.34998 169.848 1.32826 169.319 1.54543C168.361 1.95807 167.908 2.84849 167.403 3.60861C167 4.19498 166.622 4.67277 165.866 4.91167C165.135 5.15056 164.303 5.02025 163.547 5.17228C162.538 5.36774 161.757 5.91068 161.681 6.82282C161.631 7.21373 162.387 7.21373 162.412 6.8011Z" fill="#8E8E8E"/>
<path d="M164.631 9.51553C165.387 8.45136 166.924 8.19075 168.134 7.66953C169.218 7.21346 169.773 6.62708 170.1 5.62807C170.579 4.08612 171.966 4.28158 173.503 4.08612C174.436 3.95581 175.192 3.6952 175.57 2.89165C175.747 2.50073 175.016 2.32699 174.839 2.71791C174.36 3.6952 172.47 3.45631 171.462 3.65177C170.428 3.82551 169.722 4.23814 169.42 5.12857C169.143 5.93212 169.042 6.43162 168.185 6.88769C167.655 7.17002 167.05 7.36548 166.471 7.58266C165.462 7.95186 164.53 8.36449 163.95 9.18976C163.723 9.53724 164.378 9.86301 164.631 9.51553Z" fill="#8E8E8E"/>
<path d="M278.239 109.157C277.634 107.549 279.549 105.899 281.364 106.876C283.356 107.94 282.247 110.373 280.028 110.329C279.549 110.308 279.549 110.959 280.028 110.981C282.852 111.068 284.339 107.962 281.969 106.464C279.65 104.987 276.676 107.072 277.508 109.352C277.659 109.743 278.39 109.569 278.239 109.157Z" fill="#8E8E8E"/>
<path d="M159.488 130.592C158.783 129.462 159.539 127.812 161.228 128.029C161.908 128.116 162.564 128.55 162.564 129.202C162.564 129.831 161.984 130.461 161.228 130.483C160.749 130.505 160.749 131.156 161.228 131.135C163.597 131.048 164.026 128.159 161.807 127.486C159.362 126.769 157.749 129.158 158.833 130.917C159.085 131.287 159.74 130.961 159.488 130.592Z" fill="#8E8E8E"/>
<path d="M266.618 3.08733C265.887 2.39237 266.946 1.41508 267.853 1.87115C268.988 2.45752 268.307 3.65199 267.248 3.89089C266.769 3.99947 266.971 4.62928 267.45 4.5207C269.29 4.12978 269.92 1.89286 267.954 1.1979C266.291 0.611524 264.879 2.41409 266.064 3.5434C266.417 3.86917 266.946 3.4131 266.618 3.08733Z" fill="#8E8E8E"/>
<path d="M7.41434 25.2609C5.95234 24.6094 6.83458 22.6113 8.47304 23.024C10.3888 23.5018 9.73339 25.6301 8.04452 25.9341C7.56559 26.021 7.76724 26.6508 8.24618 26.564C10.7669 26.0862 11.2458 22.872 8.47304 22.3507C6.07837 21.8947 4.86843 24.8483 7.01103 25.8038C7.46476 26.021 7.84286 25.4564 7.41434 25.2609Z" fill="#1E1E1E"/>
<path d="M1.81837 40.2678C1.76796 49.0417 1.74275 57.8374 1.69234 66.6113C47.9724 66.4593 94.2525 66.3072 140.533 66.1769C140.407 57.5333 140.255 48.8897 140.129 40.2461C94.0257 40.2461 47.922 40.2678 1.81837 40.2678Z" fill="#7F7F7F"/>
<path d="M0.784882 40.2026C0.784882 48.7159 0.784882 57.2075 0.784882 65.7208C0.784882 66.5678 2.2973 66.5678 2.2973 65.7208C2.2973 57.2075 2.2973 48.7159 2.2973 40.2026C2.2973 39.3556 0.784882 39.3556 0.784882 40.2026Z" fill="#161616"/>
<path d="M2.24687 40.5501C20.2195 40.5501 38.1921 40.5501 56.1647 40.5501C74.2129 40.5501 92.2864 40.5501 110.335 40.5501C120.493 40.5501 130.651 40.5501 140.835 40.5501C141.818 40.5501 141.818 39.2471 140.835 39.2471C122.863 39.2471 104.89 39.2471 86.9173 39.2471C68.8691 39.2471 50.7956 39.2471 32.7474 39.2471C22.5889 39.2471 12.4305 39.2471 2.24687 39.2471C1.2638 39.2471 1.2638 40.5501 2.24687 40.5501Z" fill="#161616"/>
<path d="M140.003 39.8768C140.129 48.7376 140.255 57.6201 140.381 66.4808C140.381 67.3278 141.894 67.3278 141.894 66.4808C141.768 57.6201 141.642 48.7376 141.516 39.8768C141.516 39.0515 140.003 39.0515 140.003 39.8768Z" fill="#161616"/>
<path d="M1.54088 66.9808C19.7151 66.9808 37.8642 66.9808 56.0385 66.9808C74.2127 66.9808 92.3618 66.9808 110.536 66.9808C120.745 66.9808 130.954 66.9808 141.188 66.9808C142.171 66.9808 142.171 65.6777 141.188 65.6777C123.014 65.6777 104.865 65.6777 86.6902 65.6777C68.516 65.6777 50.3669 65.6777 32.1926 65.6777C21.9838 65.6777 11.7749 65.6777 1.54088 65.6777C0.557805 65.6777 0.557805 66.9808 1.54088 66.9808Z" fill="#161616"/>
<path d="M47.4466 46.3151C47.1945 48.0743 46.7156 49.7031 46.1358 51.3971C45.8333 52.3092 45.9846 52.635 47.1189 52.7218C49.1102 52.8739 51.1268 52.9173 53.1434 53.0259C53.7483 53.0476 55.9918 53.5688 56.143 52.6784C56.2186 52.2658 55.4876 52.092 55.412 52.5047C55.412 52.5481 48.2784 52.1572 47.623 52.092C47.4214 52.092 47.2197 52.0703 47.0433 52.0051C46.7156 52.0486 46.6147 51.9617 46.7912 51.7445C46.766 51.5491 47.0181 51.1582 47.0937 50.9627C47.2701 50.4415 47.4466 49.9203 47.5978 49.3773C47.8751 48.3566 48.0768 47.3141 48.228 46.2717C48.2532 45.9025 47.497 45.9025 47.4466 46.3151Z" fill="white"/>
<path d="M52.1351 47.5097C52.3115 52.1138 52.5636 56.7397 52.8661 61.3438C52.8913 61.7564 53.6475 61.7564 53.6223 61.3438C53.3198 56.7397 53.0929 52.1355 52.8913 47.5097C52.8661 47.097 52.1099 47.097 52.1351 47.5097Z" fill="white"/>
<path d="M119.447 46.3151C119.195 48.0743 118.716 49.7031 118.136 51.3971C117.833 52.3092 117.985 52.635 119.119 52.7218C121.11 52.8739 123.127 52.9173 125.143 53.0259C125.748 53.0476 127.992 53.5688 128.143 52.6784C128.219 52.2658 127.488 52.092 127.412 52.5047C127.412 52.5481 120.278 52.1572 119.623 52.092C119.421 52.092 119.22 52.0703 119.043 52.0051C118.716 52.0486 118.615 51.9617 118.791 51.7445C118.766 51.5491 119.018 51.1582 119.094 50.9627C119.27 50.4415 119.447 49.9203 119.598 49.3773C119.875 48.3566 120.077 47.3141 120.228 46.2717C120.253 45.9025 119.497 45.9025 119.447 46.3151Z" fill="white"/>
<path d="M124.135 47.5097C124.312 52.1138 124.564 56.7397 124.866 61.3438C124.891 61.7564 125.647 61.7564 125.622 61.3438C125.32 56.7397 125.093 52.1355 124.891 47.5097C124.866 47.097 124.11 47.097 124.135 47.5097Z" fill="white"/>
<path d="M82.4466 46.3151C82.1945 48.0743 81.7156 49.7031 81.1358 51.3971C80.8333 52.3092 80.9846 52.635 82.1189 52.7218C84.1102 52.8739 86.1268 52.9173 88.1434 53.0259C88.7483 53.0476 90.9918 53.5688 91.143 52.6784C91.2186 52.2658 90.4876 52.092 90.412 52.5047C90.412 52.5481 83.2784 52.1572 82.623 52.092C82.4214 52.092 82.2197 52.0703 82.0433 52.0051C81.7156 52.0486 81.6147 51.9617 81.7912 51.7445C81.766 51.5491 82.0181 51.1582 82.0937 50.9627C82.2701 50.4415 82.4466 49.9203 82.5978 49.3773C82.8751 48.3566 83.0768 47.3141 83.228 46.2717C83.2532 45.9025 82.497 45.9025 82.4466 46.3151Z" fill="white"/>
<path d="M87.1351 47.5097C87.3115 52.1138 87.5636 56.7397 87.8661 61.3438C87.8913 61.7564 88.6475 61.7564 88.6223 61.3438C88.3198 56.7397 88.0929 52.1355 87.8913 47.5097C87.8661 47.097 87.1099 47.097 87.1351 47.5097Z" fill="white"/>
<path d="M32.4466 46.3151C32.1945 48.0743 31.7156 49.7031 31.1358 51.3971C30.8333 52.3092 30.9846 52.635 32.1189 52.7218C34.1102 52.8739 36.1268 52.9173 38.1434 53.0259C38.7483 53.0476 40.9918 53.5688 41.143 52.6784C41.2186 52.2658 40.4876 52.092 40.412 52.5047C40.412 52.5481 33.2784 52.1572 32.623 52.092C32.4214 52.092 32.2197 52.0703 32.0433 52.0051C31.7156 52.0486 31.6147 51.9617 31.7912 51.7445C31.766 51.5491 32.0181 51.1582 32.0937 50.9627C32.2701 50.4415 32.4466 49.9203 32.5978 49.3773C32.8751 48.3566 33.0768 47.3141 33.228 46.2717C33.2532 45.9025 32.497 45.9025 32.4466 46.3151Z" fill="white"/>
<path d="M37.1351 47.5097C37.3115 52.1138 37.5636 56.7397 37.8661 61.3438C37.8913 61.7564 38.6475 61.7564 38.6223 61.3438C38.3198 56.7397 38.0929 52.1355 37.8913 47.5097C37.8661 47.097 37.1099 47.097 37.1351 47.5097Z" fill="white"/>
<path d="M106.447 46.3151C106.195 48.0743 105.716 49.7031 105.136 51.3971C104.833 52.3092 104.985 52.635 106.119 52.7218C108.11 52.8739 110.127 52.9173 112.143 53.0259C112.748 53.0476 114.992 53.5688 115.143 52.6784C115.219 52.2658 114.488 52.092 114.412 52.5047C114.412 52.5481 107.278 52.1572 106.623 52.092C106.421 52.092 106.22 52.0703 106.043 52.0051C105.716 52.0486 105.615 51.9617 105.791 51.7445C105.766 51.5491 106.018 51.1582 106.094 50.9627C106.27 50.4415 106.447 49.9203 106.598 49.3773C106.875 48.3566 107.077 47.3141 107.228 46.2717C107.253 45.9025 106.497 45.9025 106.447 46.3151Z" fill="white"/>
<path d="M111.135 47.5097C111.312 52.1138 111.564 56.7397 111.866 61.3438C111.891 61.7564 112.647 61.7564 112.622 61.3438C112.32 56.7397 112.093 52.1355 111.891 47.5097C111.866 47.097 111.11 47.097 111.135 47.5097Z" fill="white"/>
<path d="M65.3573 47.0578C62.6602 48.6432 60.7949 51.119 60.2151 53.8772C59.7866 55.9186 59.7614 59.6106 62.4333 60.5879C65.1053 61.5652 67.2227 58.4379 66.2396 56.4833C65.3069 54.6373 60.9209 54.3984 60.2403 56.5484C60.1143 56.9611 60.8453 57.1348 60.9713 56.7222C61.3242 55.6363 63.2148 55.5494 64.2482 55.81C65.8111 56.2009 66.0379 57.7863 65.3573 58.8939C64.5255 60.2404 62.7106 60.501 61.6771 59.1763C61.0722 58.4161 60.8705 57.4823 60.7697 56.5919C60.4168 53.0953 62.3577 49.5988 65.7102 47.6008C66.1388 47.3836 65.7607 46.8189 65.3573 47.0578Z" fill="white"/>
<path d="M136.357 47.0578C133.66 48.6432 131.795 51.119 131.215 53.8772C130.787 55.9186 130.761 59.6106 133.433 60.5879C136.105 61.5652 138.223 58.4379 137.24 56.4833C136.307 54.6373 131.921 54.3984 131.24 56.5484C131.114 56.9611 131.845 57.1348 131.971 56.7222C132.324 55.6363 134.215 55.5494 135.248 55.81C136.811 56.2009 137.038 57.7863 136.357 58.8939C135.526 60.2404 133.711 60.501 132.677 59.1763C132.072 58.4161 131.87 57.4823 131.77 56.5919C131.417 53.0953 133.358 49.5988 136.71 47.6008C137.139 47.3836 136.761 46.8189 136.357 47.0578Z" fill="white"/>
<path d="M19.2567 48.2152C19.1811 48.0632 18.7274 47.3031 18.8282 47.0207C18.7274 46.7384 18.9038 46.6732 19.3071 46.8036C19.4836 46.8036 19.6348 46.8036 19.8113 46.8036C20.6431 46.7818 21.4497 46.7818 22.2816 46.7601C23.92 46.7384 25.5585 46.695 27.2222 46.6732C27.1213 46.4995 26.9953 46.3475 26.8945 46.1737C24.1217 51.0168 22.3068 56.2073 21.5506 61.5933C21.8026 61.5715 22.0547 61.5281 22.2816 61.5064C22.2564 61.3544 22.2312 61.2023 22.206 61.0503C22.1303 60.6377 21.3993 60.8114 21.475 61.2241C21.5002 61.3761 21.5254 61.5281 21.5506 61.6801C21.6262 62.071 22.2564 61.919 22.2816 61.5933C23.0378 56.3376 24.8023 51.2557 27.5246 46.4995C27.6507 46.2823 27.4994 46 27.1969 46C24.4998 46.0434 21.7774 46.0434 19.0551 46.152C17.3662 46.2172 18.0972 47.5854 18.5761 48.541C18.7778 48.9319 19.4332 48.5844 19.2567 48.2152Z" fill="white"/>
<path d="M102.725 46.7659C101.489 49.1331 100.279 51.5004 99.0443 53.8676C98.4646 54.9969 97.8848 56.1045 97.3051 57.2338C96.7505 58.298 96.322 59.6662 95.5406 60.6218C95.2633 60.9692 95.9187 61.295 96.1959 60.9475C96.9017 60.0571 97.3303 58.7541 97.8596 57.755C98.4646 56.5606 99.0948 55.3878 99.6997 54.1934C100.935 51.8261 102.145 49.4589 103.38 47.0917C103.582 46.7225 102.926 46.3967 102.725 46.7659Z" fill="white"/>
<path d="M103.002 46.6353C101.464 45.3105 99.0191 46.3312 97.5319 47.2217C95.7674 48.2641 94.4062 50.1101 95.2633 51.9995C96.2212 54.1496 98.9939 54.736 100.784 56.191C102.22 57.3421 102.876 59.1881 101.086 60.3608C99.5989 61.3381 97.6327 61.1209 95.8935 60.8386C95.4145 60.7517 95.2129 61.3816 95.6918 61.4684C97.8344 61.8159 100.279 62.0114 101.968 60.5563C103.43 59.2967 103.153 57.4941 101.893 56.2128C100.204 54.4536 96.6749 53.9107 95.8935 51.5218C95.3641 49.9364 96.6749 48.503 98.1117 47.6777C99.246 47.0262 101.313 46.0489 102.523 47.0696C102.8 47.3954 103.33 46.9393 103.002 46.6353Z" fill="white"/>
<path d="M176.075 43.0913C175.268 43.656 174.234 44.503 173.277 45.6757C172.445 46.6964 171.915 47.6737 171.588 48.4338C172.344 48.7379 173.957 49.498 174.285 50.8445C174.663 52.3213 173.251 53.6678 171.386 55.4052C170.151 56.5345 168.26 58.0548 165.488 59.4447C165.009 59.4447 164.051 59.4012 162.992 58.9235C161.732 58.3371 161.127 57.4684 160.9 57.1209C159.841 57.3815 158.48 57.8159 156.993 58.576C155.606 59.2927 154.548 60.0745 153.792 60.726C154.144 61.421 155.203 63.3321 157.598 64.1574C158.53 64.4832 159.715 64.6569 161.908 64.3311C164.126 64.0054 167.126 63.2235 170.68 61.1387C175.747 58.1633 178.268 54.6885 178.973 53.6461C180.738 51.0617 181.998 49.2157 181.267 47.1091C180.335 44.4812 176.856 43.3302 176.075 43.0913Z" fill="#32D9BA"/>
<path d="M160.95 52.5165C162.312 50.8659 164.177 49.628 166.345 48.8896C166.798 48.7376 166.597 48.1078 166.143 48.2598C163.774 49.0634 161.782 50.3881 160.295 52.1907C159.992 52.5382 160.648 52.864 160.95 52.5165Z" fill="#161616"/>
<path d="M156.791 52.9075C158.833 49.0635 162.79 46.2402 167.58 45.2195C168.059 45.1109 167.857 44.4811 167.378 44.5897C162.438 45.6321 158.278 48.5857 156.136 52.56C155.934 52.9727 156.564 53.2984 156.791 52.9075Z" fill="#161616"/>
<path d="M153.287 53.6024C153.867 50.6054 155.758 47.9776 158.455 46.0012C161.026 44.1118 164.983 42.0704 168.487 42.4613C168.966 42.5047 168.966 41.8532 168.487 41.8097C164.908 41.4188 160.925 43.4386 158.228 45.3063C155.304 47.3477 153.187 50.1928 152.556 53.407C152.481 53.8413 153.212 54.0151 153.287 53.6024Z" fill="#161616"/>
<path d="M11.5474 59.2283C9.53 55.4477 8.73313 45.2337 12.8215 47.3004C17.1911 49.5093 15.2998 59.297 11.5474 59.2283C10.7808 59.2283 10.5983 60 11.3649 60C13.6244 60 15.6338 57.3624 15.9566 53.5131C16.2794 49.9388 14.7582 47.5854 12.8215 46.4168C8.42353 43.8048 7.88763 54.1024 10.8734 59.6701C12.1098 59.8837 11.9983 59.9304 11.5474 59.2283Z" fill="white"/>
<path d="M72.5474 59.2283C70.53 55.4477 69.7331 45.2337 73.8215 47.3004C78.1911 49.5093 76.2998 59.297 72.5474 59.2283C71.7808 59.2283 71.5983 60 72.3649 60C74.6244 60 76.6338 57.3624 76.9566 53.5131C77.2794 49.9388 75.7582 47.5854 73.8215 46.4168C69.4235 43.8048 68.8876 54.1024 71.8734 59.6701C73.1098 59.8837 72.9983 59.9304 72.5474 59.2283Z" fill="white"/>
<path d="M196.316 150.528C196.417 153.351 196.492 156.175 196.593 158.998C186.183 161.648 181.066 163.385 181.242 164.21C181.469 165.253 189.812 164.905 206.273 163.168C205.92 158.346 205.567 153.503 205.189 148.682C202.239 149.29 199.29 149.898 196.316 150.528Z" fill="#161616" stroke="#161616" stroke-width="2"/>
<path d="M229.261 94.8662C227.749 95.2571 228.077 95.4091 219.91 100.817C211.264 106.529 206.953 109.395 203.954 110.85C202.214 111.697 200.803 112.305 199.063 113.695C196.19 116.019 194.728 118.669 193.593 121.253C190.064 129.31 189.535 137.02 189.434 140.451C189.333 143.622 189.409 148.096 190.291 153.46C193.014 154.025 195.282 154.177 196.896 154.199C199.694 154.242 203.676 154.286 207.81 152.461C209.02 151.918 209.953 151.354 210.533 150.984C209.802 147.271 209.247 142.601 209.524 137.237C209.751 132.915 210.432 129.115 211.238 125.966C212.574 125.097 214.616 123.859 217.263 122.621C220.313 121.21 223.363 120.167 231.782 118.039C241.865 115.498 242.218 115.78 243.705 114.694C247.562 111.914 250.334 106.311 248.167 101.447C245.343 95.0399 235.412 93.3242 229.261 94.8662Z" fill="white"/>
<path d="M225.38 97.0597C220.716 99.8612 216.078 102.685 211.415 105.486C207.281 107.984 202.844 110.329 199.063 113.261C195.434 116.063 193.417 119.559 192.106 123.555C190.669 127.986 189.737 132.568 189.258 137.15C188.703 142.428 188.829 147.727 189.535 152.983C189.586 153.395 190.342 153.395 190.291 152.983C189.056 143.991 189.661 134.848 192.131 126.074C193.316 121.839 194.879 117.757 198.534 114.608C202.063 111.567 206.499 109.265 210.558 106.811C215.624 103.749 220.691 100.687 225.758 97.6243C226.161 97.3854 225.783 96.8208 225.38 97.0597Z" fill="#161616"/>
<path d="M239.672 115.476C234.126 116.844 228.656 118.364 223.262 120.102C220.893 120.862 218.473 121.622 216.154 122.512C214.238 123.251 212.448 124.185 211.339 125.77C211.087 126.139 211.743 126.465 211.995 126.096C213.205 124.337 215.372 123.468 217.465 122.73C219.884 121.883 222.329 121.079 224.8 120.297C229.766 118.734 234.782 117.344 239.848 116.106C240.327 115.997 240.126 115.367 239.672 115.476Z" fill="#161616"/>
<path d="M211.667 122.512C209.045 131.742 208.566 141.341 210.255 150.724C210.331 151.136 211.062 150.962 210.986 150.55C209.323 141.276 209.802 131.786 212.398 122.686C212.499 122.273 211.768 122.1 211.667 122.512Z" fill="#161616"/>
<path d="M189.863 152.961C189.989 154.177 192.182 153.981 193.14 154.068C195.459 154.264 197.778 154.416 200.122 154.307C203.903 154.133 207.609 153.221 210.583 151.136C210.961 150.876 210.432 150.42 210.054 150.68C207.508 152.461 204.357 153.33 201.13 153.591C199.467 153.721 197.803 153.721 196.139 153.634C195.534 153.612 190.669 153.504 190.619 152.961C190.569 152.548 189.812 152.548 189.863 152.961Z" fill="#161616"/>
<path opacity="0.11" d="M239.445 108.157C235.966 106.637 231.984 110.525 222.153 114.39C214.112 117.561 212.121 116.779 208.97 118.43C203.424 121.318 198.509 129.549 202.038 153.46C202.819 153.46 203.727 153.395 204.735 153.221C207.382 152.744 209.272 151.658 210.407 150.898C209.524 146.141 208.995 140.147 209.852 133.306C210.205 130.418 210.759 127.768 211.415 125.379C213.81 124.185 217.54 122.469 222.329 120.862C233.95 116.931 241.159 117.17 242.319 113.652C242.924 111.676 241.512 109.048 239.445 108.157Z" fill="#666666"/>
<path opacity="0.12" d="M236.899 116.215C236.773 115.628 228.606 115.932 220.036 118.408C214.566 119.972 211.591 120.84 208.995 123.295C204.861 127.16 204.634 132.134 204.306 139.04C204.155 142.319 204.256 147.054 205.592 152.722C207.256 152.266 208.894 151.831 210.558 151.375C209.928 147.336 209.524 142.471 209.852 136.977C210.104 132.872 210.684 129.202 211.415 125.987C212.146 125.314 213.255 124.359 214.818 123.425C218.221 121.362 221.22 120.84 224.749 120.015C229.312 118.908 237.025 116.779 236.899 116.215Z" fill="#666666"/>
<path d="M279.171 135.739C284.666 134.197 289.33 133.328 292.733 132.807C297.598 132.069 298.732 132.221 299.639 132.807C301.202 133.806 300.875 135.283 301.454 144.491C301.656 147.51 301.757 148.27 301.051 149.204C298.656 152.483 290.691 152.331 290.086 150.898C289.859 150.333 290.615 149.291 294.396 147.184C294.27 145.121 294.144 143.058 293.993 140.995C289.683 141.885 285.372 142.797 281.087 143.688C280.482 141.06 279.827 138.41 279.171 135.739Z" fill="#161616" stroke="#161616" stroke-width="2"/>
<path d="M235.135 98.3412C233.471 101.707 234.656 105.313 235.21 107.007C235.84 108.961 236.445 109.222 237.454 111.85C238.538 114.673 238.865 116.714 239.319 119.168C239.974 122.752 240.731 126.835 241.915 130.918C243.377 135.956 244.184 138.541 246.604 141.342C247.663 142.58 250.158 145.36 254.544 146.837C255.376 147.119 256.485 147.423 259.233 147.727C262.257 148.075 266.946 148.596 273.147 147.944C278.44 147.401 282.852 146.185 286.154 145.034C286.809 142.949 286.784 141.212 286.683 140.104C286.532 138.714 286.28 136.13 284.087 133.936C283.457 133.307 282.524 132.394 280.961 131.917C279.247 131.417 277.709 131.743 274.987 132.373C271.836 133.089 270.677 133.871 268.61 133.502C267.727 133.35 267.072 133.046 266.669 132.829C266.064 132.025 265.232 130.809 264.45 129.245C262.409 125.163 262.257 121.883 261.98 118.278C261.35 110.156 261.022 106.094 259.51 101.599C257.922 96.8862 257.468 94.5189 255.099 93.0856C252.654 91.6088 249.881 91.7174 248.167 91.7825C243.957 91.9345 237.454 93.672 235.135 98.3412Z" fill="white"/>
<path d="M256.309 94.584C260.442 102.055 260.77 110.438 261.678 118.517C262.333 124.359 262.913 132.373 269.794 135.457C270.223 135.652 270.601 135.087 270.172 134.892C266.643 133.306 264.879 130.179 263.896 126.987C262.837 123.49 262.56 119.82 262.207 116.215C261.451 108.744 260.77 101.121 256.989 94.2365C256.762 93.8673 256.107 94.193 256.309 94.584Z" fill="#161616"/>
<path d="M235.815 109.46C240.252 118.126 239.143 128.007 243.453 136.694C245.167 140.169 247.738 143.427 251.393 145.577C255.83 148.161 261.602 148.682 266.82 148.617C273.399 148.53 279.877 147.227 285.977 145.164C286.431 145.012 286.229 144.382 285.776 144.534C280.457 146.337 274.861 147.575 269.139 147.879C263.694 148.183 257.493 147.944 252.679 145.512C244.234 141.233 241.991 132.047 240.63 124.38C239.722 119.19 238.916 113.956 236.42 109.113C236.269 108.765 235.614 109.091 235.815 109.46Z" fill="#161616"/>
<path d="M266.19 132.937C270.752 135.239 275.97 130.809 280.785 132.155C283.457 132.916 284.767 135.391 285.498 137.563C286.305 139.909 286.406 142.363 285.851 144.752C285.75 145.164 286.481 145.338 286.582 144.925C287.086 142.667 287.061 140.343 286.456 138.106C285.876 136.065 284.868 133.741 282.877 132.394C281.037 131.135 278.592 131.113 276.373 131.482C273.399 131.982 269.492 133.871 266.568 132.394C266.139 132.177 265.761 132.72 266.19 132.937Z" fill="#161616"/>
<path opacity="0.11" d="M252.578 94.3017C248.343 97.8851 256.888 105.769 257.04 119.016C257.166 129.376 254.317 133.676 258.149 137.151C263.644 142.124 276.071 139.257 277.432 138.931C279.6 138.41 284.238 137.65 284.616 135.63C284.843 134.306 283.23 132.807 281.591 132.069C276.6 129.788 271.937 134.827 267.551 133.176C264.249 131.917 263.518 127.747 262.131 119.994C260.997 113.63 261.703 112.284 260.367 105.291C259.384 100.144 258.123 93.7153 255.099 93.3461C253.889 93.1724 252.78 94.1063 252.578 94.3017Z" fill="#666666"/>
<path opacity="0.17" d="M259.434 102.815C259.031 102.837 259.006 107.006 258.955 112.154C258.829 126.77 259.787 129.875 261.98 132.612C262.888 133.741 264.602 135.826 267.727 136.999C274.634 139.626 283.809 136.173 283.835 133.98C283.835 132.872 281.49 132.047 281.112 131.917C278.718 131.091 276.877 131.895 272.013 132.612C269.996 132.916 268.282 133.068 267.072 133.155C266.164 132.177 264.904 130.657 263.896 128.616C261.955 124.772 262.106 121.644 261.98 118.321C261.703 110.112 259.938 102.793 259.434 102.815Z" fill="#666666"/>
<path d="M165.765 66.6115C165.815 66.112 167.151 65.8514 167.958 65.6994C171.26 65.0696 174.108 65.5474 174.865 65.808C176.276 66.2858 177.688 66.7636 179.125 67.2414C179.2 66.8722 179.427 66.0903 180.158 65.5039C181.469 64.4832 183.334 64.8741 183.838 65.0044C184.494 65.1565 185.527 65.5039 187.292 67.1545C189.107 68.8485 189.359 69.7172 190.392 70.8248C192.787 73.3874 196.391 74.0607 198.206 74.3864C199.794 74.6905 202.996 75.2769 206.6 73.9738C209.776 72.8228 211.566 70.803 212.347 69.8909C213.104 69.0005 213.356 68.4793 214.868 65.5039C217.943 59.4447 218.927 57.577 221.069 55.7093C222.229 54.6886 223.64 53.4941 225.102 53.7764C226.892 54.1239 227.648 56.5346 227.976 57.5553C228.329 58.6846 228.782 60.8347 227.749 64.5918C227.396 65.8949 226.186 69.7389 222.682 73.9738C221.22 75.7547 219.179 78.1653 215.549 80.2068C213.961 81.0972 211.364 82.5306 207.609 82.9649C204.281 83.3558 201.735 82.7695 199.568 82.2482C197.173 81.6836 193.19 80.4239 188.981 77.4486C186.283 77.5572 184.216 77.7092 182.78 77.8613C180.335 78.1002 179.301 78.2956 178.192 77.7527C177.814 77.5572 177.259 77.2097 176.478 77.2532C175.747 77.2966 175.495 77.6441 174.865 77.7527C174.159 77.883 172.999 77.7744 172.344 77.036C171.815 76.4496 171.865 75.7112 171.89 75.4723C171.462 75.1466 170.781 74.5385 170.453 73.6263C170.227 72.9965 170.252 72.4753 170.252 71.8889C170.277 71.194 170.277 70.8465 170.479 70.5641C171.058 69.6954 172.722 69.7389 172.974 69.7606C172.167 69.2394 171.436 68.957 170.983 68.805C169.42 68.2621 168.588 68.4358 167.151 67.7626C166.572 67.4585 165.714 67.0459 165.765 66.6115Z" fill="white"/>
<path d="M225.329 53.494C223.136 52.7773 221.498 54.3627 220.338 55.7744C218.599 57.881 217.112 60.1396 215.851 62.4851C213.482 66.9589 211.869 72.1712 207.004 75.1682C206.6 75.4071 206.978 75.9718 207.382 75.7329C211.314 73.2788 213.28 69.4347 215.07 65.6776C216.154 63.419 217.313 61.2038 218.725 59.0972C219.431 58.0764 220.162 57.0557 220.968 56.1001C221.926 54.9491 223.212 53.5157 225.102 54.1238C225.581 54.2758 225.783 53.646 225.329 53.494Z" fill="#161616"/>
<path d="M181.242 67.6325C180.158 67.9366 179.73 66.7856 180.057 66.1557C180.309 65.6562 180.965 65.3956 181.519 65.2436C182.578 64.983 183.788 65.1567 184.771 65.5694C186.409 66.2643 187.342 67.676 188.35 68.9356C190.115 71.1508 192.459 72.9316 195.308 74.0175C200.979 76.1676 207.609 75.0165 211.969 71.2377C212.322 70.9336 211.768 70.4776 211.44 70.7816C208.466 73.3877 204.256 74.7776 200.021 74.4302C195.686 74.0827 191.753 71.9109 189.233 68.8922C187.367 66.6118 185.023 63.5496 181.166 64.6572C180.082 64.9613 179.024 65.7865 179.2 66.8507C179.351 67.8063 180.36 68.5664 181.469 68.2406C181.897 68.1321 181.696 67.5022 181.242 67.6325Z" fill="#161616"/>
<path d="M178.62 66.7418C176.604 65.8731 174.487 65.1999 172.243 65.0044C170.277 64.8307 167.529 64.8958 165.916 66.0469C164.454 67.0893 166.37 67.7625 167.403 68.1317C169.773 68.9787 172.445 69.2393 174.739 70.2601C175.167 70.4555 175.545 69.8909 175.117 69.6954C173.705 69.0656 172.193 68.7616 170.68 68.3924C169.874 68.1969 169.092 67.9797 168.311 67.7191C167.882 67.5888 167.025 67.4368 166.698 67.1327C166.118 66.6115 166.849 66.2858 167.403 66.112C170.907 64.8741 175.041 65.9166 178.268 67.3065C178.671 67.4802 179.049 66.9156 178.62 66.7418Z" fill="#161616"/>
<path d="M174.562 69.8474C173.478 69.2827 172.117 69.2176 171.033 69.8039C170.151 70.26 169.42 71.259 169.823 72.1494C170.277 73.1702 172.041 73.2788 173.075 73.4525C174.663 73.6914 176.175 73.6914 177.637 73.0616C178.066 72.8661 177.688 72.3015 177.259 72.4969C175.621 73.2136 173.806 72.953 172.067 72.6055C171.386 72.4752 171.361 72.4969 170.932 71.8671C170.378 71.4762 170.403 71.0636 170.958 70.6726C171.109 70.5641 171.26 70.4772 171.411 70.3686C172.268 69.9125 173.327 69.9777 174.184 70.412C174.587 70.6292 174.965 70.0646 174.562 69.8474Z" fill="#161616"/>
<path d="M170.227 72.5187C169.722 73.7132 170.378 74.9511 171.663 75.5374C173.327 76.2976 175.218 75.7329 176.806 75.19C177.259 75.0379 177.058 74.4081 176.604 74.5601C175.545 74.9293 174.386 75.3203 173.226 75.2334C171.714 75.1248 170.378 74.0606 170.958 72.6924C171.109 72.3015 170.378 72.1278 170.227 72.5187Z" fill="#161616"/>
<path d="M171.411 75.255C170.958 76.4712 172.092 77.4919 173.377 77.8177C175.268 78.2738 176.78 77.3616 178.142 76.3409C178.52 76.0586 177.965 75.6025 177.612 75.8848C176.755 76.5146 175.873 77.1879 174.713 77.2748C173.554 77.3616 171.638 76.7535 172.142 75.4288C172.294 75.0378 171.563 74.8641 171.411 75.255Z" fill="#161616"/>
<path d="M175.797 70.9985C176.554 71.2157 177.713 71.8021 177.108 72.6056C176.856 72.9531 177.511 73.2789 177.763 72.9314C178.116 72.4536 178.091 71.8238 177.713 71.346C177.335 70.8248 176.654 70.5425 175.974 70.3687C175.52 70.2384 175.318 70.8682 175.797 70.9985Z" fill="#161616"/>
<path d="M176.881 73.2134C177.411 73.7129 177.184 74.4947 176.427 74.6902C175.974 74.7988 176.15 75.4286 176.629 75.32C177.965 74.9942 178.343 73.6043 177.436 72.7356C177.083 72.4532 176.554 72.9093 176.881 73.2134Z" fill="#161616"/>
<path d="M177.234 74.8205C177.738 75.0594 177.814 75.7109 177.411 76.0367C177.058 76.319 177.587 76.7968 177.94 76.4928C178.696 75.863 178.545 74.6902 177.612 74.2559C177.209 74.0604 176.806 74.6251 177.234 74.8205Z" fill="#161616"/>
<path d="M178.116 67.263C178.671 67.4802 179.225 67.7191 179.78 67.9362C180.209 68.11 180.612 67.5453 180.158 67.3716C179.604 67.1544 179.049 66.9155 178.494 66.6983C178.066 66.5246 177.688 67.0892 178.116 67.263Z" fill="#161616"/>
<path d="M181.544 68.2621C182.099 67.8495 182.855 67.6757 183.586 67.8278C184.065 67.9146 184.267 67.2848 183.788 67.198C182.78 67.0025 181.797 67.2197 181.015 67.8061C180.637 68.0884 181.166 68.5444 181.544 68.2621Z" fill="#161616"/>
<path d="M181.973 69.0436C181.267 70.8461 182.099 72.8441 183.99 73.8214C184.418 74.0386 184.796 73.474 184.368 73.2568C182.754 72.4315 182.099 70.7158 182.704 69.2173C182.855 68.8047 182.124 68.6309 181.973 69.0436Z" fill="#161616"/>
<path d="M176.654 77.3616C178.167 78.2955 179.805 78.491 181.595 78.1869C184.09 77.796 186.485 77.6005 189.031 77.8394C189.51 77.8829 189.51 77.2313 189.031 77.1879C187.065 76.9924 185.099 77.0142 183.133 77.2748C180.889 77.5788 179.049 78.0349 177.032 76.797C176.629 76.5581 176.251 77.1227 176.654 77.3616Z" fill="#161616"/>
<path d="M188.376 77.5574C191.98 79.0342 195.308 81.0105 199.038 82.2267C202.466 83.3343 206.222 83.5515 209.802 82.7914C213.482 82.0095 216.456 80.1418 219.053 77.818C221.75 75.4291 224.17 72.7361 225.884 69.7174C227.9 66.1991 228.883 62.2899 228.379 58.3808C228.329 57.9681 227.573 57.9681 227.623 58.3808C228.178 62.6809 226.892 66.9592 224.422 70.6947C222.128 74.1695 218.876 77.6443 215.07 79.9898C211.238 82.3353 206.273 83.1171 201.685 82.2267C196.996 81.3146 193.039 78.7302 188.729 76.9711C188.325 76.819 187.947 77.3837 188.376 77.5574Z" fill="#161616"/>
<path opacity="0.16" d="M226.337 56.0133C225.354 56.0567 225.48 59.6618 224.296 63.3538C222.556 68.6964 217.565 75.7111 210.23 77.8612C205.037 79.3814 199.794 78.1218 191.451 76.1021C188.804 75.4723 184.141 74.1475 177.688 73.8C172.369 73.5177 171.058 74.1692 171.008 74.5167C170.983 74.7339 171.462 74.8859 171.739 75.5808C171.966 76.1672 171.714 76.3627 171.941 76.7319C172.344 77.4051 173.554 77.492 173.982 77.5354C175.041 77.6223 175.898 77.2965 176.352 77.1011C176.831 77.2965 177.587 77.5571 178.52 77.7309C180.335 78.0567 181.368 77.7526 183.662 77.5571C186.031 77.3617 187.594 77.2314 189.308 77.644C190.947 78.0349 191.703 78.6865 193.115 79.5117C193.543 79.7506 197.576 82.0744 202.567 82.7911C204.13 83.0083 207.709 83.4861 211.692 82.1613C213.961 81.4229 215.398 80.4022 217.036 79.2511C218.069 78.5127 222.682 75.1248 226.06 68.8049C227.547 66.0468 228.757 63.723 228.43 60.6608C228.152 58.4239 227.169 55.9698 226.337 56.0133Z" fill="#666666"/>
<path opacity="0.17" d="M178.091 75.472C179.301 74.9508 180.713 75.3851 181.267 75.5588C184.418 76.4927 184.721 75.8412 189.485 76.4493C193.417 76.9488 193.568 77.9261 198.736 79.3594C203.701 80.7494 207.709 81.857 211.667 80.7711C217.288 79.2291 219.884 74.3427 220.086 74.4947C220.288 74.625 218.019 79.3594 212.6 81.5746C207.684 83.5944 202.567 82.5736 201.105 82.2913C198.736 81.8135 196.82 81.0317 194.728 80.163C192.283 79.164 190.367 78.1215 188.981 77.3397C187.216 77.2745 185.83 77.4048 184.872 77.5134C182.528 77.8175 181.545 78.2735 179.629 78.0347C179.125 77.9695 177.032 77.7089 176.856 76.8836C176.755 76.3407 177.436 75.7543 178.091 75.472Z" fill="#666666"/>
<path d="M222.682 54.3194C222.002 55.036 221.12 56.2305 220.464 65.7211C220.111 70.9768 219.758 76.493 220.288 84.5937C220.515 87.8948 220.943 92.4121 221.825 97.7546C224.649 99.1445 229.791 101.208 236.597 101.555C247.511 102.12 255.477 97.8632 258.149 96.2995C256.787 93.9757 254.922 90.3706 253.737 85.7665C252.275 80.1199 252.981 77.6224 252.2 70.6944C251.166 61.5296 250.662 56.9472 247.436 54.1673C241.26 48.8248 227.699 48.9985 222.682 54.3194Z" fill="#3A3A3A"/>
<path opacity="0.22" d="M236.42 50.4102C238.21 52.7122 240.504 56.1219 242.319 60.5523C243.1 62.4852 246.982 72.4318 244.159 85.2235C242.672 92.0211 239.773 97.494 237 101.533C238.941 101.642 241.21 101.62 243.705 101.338C250.334 100.556 255.3 98.1889 258.249 96.4515C257.317 94.9747 256.132 92.8898 255.124 90.2837C254.922 89.7191 253.939 87.1781 253.284 83.2255C252.83 80.5325 252.906 79.6421 252.603 75.2551C252.528 74.2344 252.225 70.0863 251.57 65.3084C250.612 58.3154 249.881 56.7951 248.671 55.4486C246.957 53.5375 244.789 52.5168 243.831 52.0607C240.806 50.7142 237.983 50.4536 236.42 50.4102Z" fill="#666666"/>
<path opacity="0.22" d="M251.595 66.7202C251.217 70.2385 250.713 73.8653 250.108 77.6007C248.721 86.0272 246.881 93.8672 244.789 101.056C246.503 100.86 248.696 100.469 251.091 99.6658C254.216 98.6234 256.561 97.2335 258.149 96.1476C254.796 91.0657 253.637 86.809 253.208 83.7685C252.78 80.7064 252.931 77.7528 252.099 70.5425C251.897 68.9354 251.721 67.6106 251.595 66.7202Z" fill="#666666"/>
<path d="M212.398 28.4754C211.894 29.5396 211.919 30.7992 211.919 33.3402C211.919 35.1427 211.944 37.662 213.028 40.6373C213.86 42.9393 214.667 45.2414 217.162 47.2829C217.868 47.8692 220.918 50.3668 225.228 50.3668C226.06 50.3668 226.766 50.2799 227.22 50.193C227.421 50.8446 227.85 51.7567 228.656 52.6906C229.085 53.1683 229.513 53.5375 229.892 53.8199C230.497 53.8199 232.034 53.733 233.622 52.8643C235.135 52.0173 235.84 50.9097 236.093 50.4319C235.639 50.041 234.454 48.89 234.378 47.2177C234.353 46.7616 234.429 46.3707 234.504 46.0232C235.336 45.1111 236.219 43.9166 236.975 42.4616C237.353 41.7449 237.63 41.0716 237.882 40.4418C238.26 40.5287 239.017 40.6373 239.748 40.3332C240.529 39.9857 240.806 39.3125 241.134 38.4872C241.613 37.271 242.142 35.9028 241.487 34.6866C240.857 33.5356 239.874 33.7962 239.017 32.7321C237.706 31.1467 238.991 29.5396 238.462 27.8022C237.655 25.1309 233.168 23.9799 231.429 23.5238C224.296 21.6995 214.616 23.741 212.398 28.4754Z" fill="white"/>
<path d="M211.743 31.6025C212.373 31.6894 212.776 30.8424 213.759 29.9954C214.767 29.1484 216.456 28.258 219.481 28.0191C221.951 27.802 224.422 27.5631 226.892 27.3459C227.673 27.3893 229.463 27.5631 231.253 28.6272C232.69 29.4959 233.471 30.5384 233.849 31.103C234.631 31.1247 235.387 31.1682 236.168 31.1899C236.319 31.9935 236.496 32.797 236.647 33.6006C236.748 33.5137 238.109 32.4712 239.521 32.8622C240.655 33.1662 241.134 34.2087 241.336 34.6864C241.966 36.0112 241.537 37.0754 241.915 37.1622C242.369 37.2926 243.251 35.8592 243.352 35.6637C243.579 35.2945 244.31 34.0132 244.512 32.0152C244.663 30.3863 244.764 29.3005 244.033 28.2797C243.781 27.9323 243.529 27.7151 243.453 27.2807C243.327 26.4555 244.083 25.9994 244.512 25.2176C244.739 24.8049 244.789 24.414 244.134 21.417C243.428 18.2028 243.176 17.7684 242.798 17.6815C242.293 17.5947 241.84 18.181 241.26 18.6806C240.252 19.571 238.512 20.5483 235.286 20.9175C235.286 19.9402 235.135 19.1583 235.009 18.5937C234.782 17.725 234.656 17.725 233.849 15.6835C233.395 14.5325 233.295 14.0547 232.992 14.033C232.488 13.9895 232.311 15.0971 231.127 15.4881C230.597 15.6618 230.396 15.5098 229.69 15.5966C229.06 15.6618 228.203 15.9007 227.22 16.6174C227.22 16.6174 225.707 17.5078 223.187 18.6154C220.389 19.8316 219.456 18.5068 216.557 19.6144C214.389 20.4397 213.078 21.9165 212.524 22.5897C211.969 23.263 210.407 25.2176 210.407 27.9105C210.356 29.4525 210.86 31.4939 211.743 31.6025Z" fill="#353535"/>
<path d="M211.768 32.4716C211.339 36.1636 212.045 39.9207 213.86 43.287C215.398 46.132 217.843 48.9553 221.372 50.0846C224.976 51.2356 229.11 50.3886 232.11 48.434C235.16 46.436 237.076 43.4607 238.21 40.3551C238.361 39.9642 237.63 39.7904 237.479 40.1813C236.395 43.1349 234.58 45.9799 231.681 47.8911C228.682 49.8457 224.472 50.671 220.968 49.2376C217.817 47.9562 215.7 45.285 214.339 42.6137C212.7 39.4212 212.121 35.9247 212.524 32.4716C212.574 32.059 211.818 32.059 211.768 32.4716Z" fill="#161616"/>
<path d="M237.176 34.0999C237.529 32.7752 239.319 32.8186 240.226 33.6656C241.008 34.3605 241.184 35.3813 241.21 36.3151C241.26 37.8788 240.605 40.7672 238.008 40.0506C237.555 39.9202 237.353 40.5501 237.807 40.6804C241.487 41.7011 242.293 37.2924 241.84 35.1641C241.562 33.9262 240.63 32.6014 239.042 32.4277C237.832 32.2974 236.723 32.9489 236.445 33.9696C236.345 34.3171 237.076 34.4908 237.176 34.0999Z" fill="#161616"/>
<path d="M221.12 32.7317C220.54 33.7742 219.96 34.7949 219.405 35.8374C219.128 36.3803 218.826 36.9232 218.876 37.5531C219.002 38.8344 220.313 39.6814 221.674 39.9637C222.153 40.0723 222.355 39.4425 221.876 39.3339C220.237 38.9864 219.229 37.8571 219.935 36.4237C220.489 35.2944 221.145 34.1868 221.775 33.0575C221.977 32.6883 221.321 32.3625 221.12 32.7317Z" fill="#161616"/>
<path d="M217.439 35.577C217.288 35.425 217.187 35.2296 217.162 35.0341C217.137 34.9472 217.137 34.8386 217.162 34.7518C217.162 34.6866 217.288 34.4912 217.288 34.4477C217.238 34.4477 217.212 34.4694 217.162 34.4694C217.187 34.5346 217.187 34.5997 217.187 34.6649C217.187 34.7735 217.187 34.8821 217.187 34.9907C217.162 35.273 217.086 35.5336 216.96 35.7942C217.162 35.7508 217.389 35.7073 217.591 35.6422C217.338 35.4467 217.238 35.2513 217.263 34.9472C217.313 34.5346 216.557 34.5346 216.507 34.9472C216.456 35.3816 216.658 35.8159 217.061 36.0983C217.288 36.272 217.591 36.1851 217.691 35.9462C217.918 35.4467 218.019 34.8821 217.918 34.3609C217.843 33.9917 217.49 33.6225 217.036 33.7962C216.607 33.9482 216.431 34.4694 216.431 34.8604C216.431 35.2947 216.607 35.7073 216.96 36.0331C217.238 36.3589 217.767 35.8811 217.439 35.577Z" fill="#161616"/>
<path d="M227.068 35.2515C226.993 35.0778 226.942 34.9258 226.942 34.752C226.942 34.6651 226.968 34.5783 226.993 34.4914C226.993 34.4697 227.018 34.4262 227.018 34.4045C227.068 34.3394 227.043 34.3394 226.917 34.4045C226.917 34.4262 226.968 34.5348 226.968 34.5783C226.968 34.6651 226.968 34.752 226.942 34.8389C226.892 35.0343 226.791 35.2081 226.665 35.3601C226.867 35.3818 227.068 35.4035 227.27 35.4253C226.968 35.0561 226.993 34.6217 227.32 34.2525C227.119 34.2742 226.917 34.2959 226.715 34.3177C226.968 34.5783 226.791 34.9692 226.489 35.0995C226.665 35.1646 226.867 35.2298 227.043 35.295C226.968 35.1212 226.917 34.9692 226.892 34.7737C226.892 34.6651 226.917 34.5566 226.917 34.448C226.917 34.4045 226.942 34.3828 226.942 34.3394C226.867 34.2525 226.842 34.2308 226.892 34.2959C226.968 34.4697 227.018 34.6 226.993 34.7954C226.993 34.8823 226.942 35.0126 226.942 35.0778C226.942 35.1212 226.917 35.1429 226.917 35.1864C227.094 35.1646 227.119 35.1212 227.018 35.0343C226.741 34.6869 226.085 35.0126 226.363 35.3601C226.64 35.7076 227.245 36.0116 227.573 35.5121C227.825 35.0995 227.825 34.3828 227.573 33.9919C227.295 33.5793 226.64 33.449 226.312 33.905C226.01 34.3394 226.085 34.9909 226.287 35.447C226.388 35.6424 226.615 35.751 226.842 35.6424C227.623 35.295 227.774 34.4045 227.22 33.8399C227.043 33.6661 226.766 33.753 226.615 33.905C226.161 34.4262 226.136 35.1864 226.564 35.7293C226.69 35.8813 226.993 35.9682 227.169 35.7945C227.623 35.295 228.102 34.1222 227.194 33.753C226.791 33.601 226.438 33.8182 226.312 34.1439C226.136 34.5566 226.136 35.0126 226.337 35.4035C226.539 35.7945 227.27 35.6424 227.068 35.2515Z" fill="#161616"/>
<path d="M219.002 31.6029C217.691 30.8645 215.977 31.212 215.145 32.3196C214.893 32.667 215.549 32.9928 215.801 32.6453C216.406 31.8201 217.666 31.6246 218.624 32.1458C219.027 32.3847 219.405 31.8201 219.002 31.6029Z" fill="#161616"/>
<path d="M225.959 31.7761C227.119 30.9291 228.909 31.1897 229.438 32.471C229.589 32.8619 230.32 32.6882 230.169 32.2973C229.438 30.5382 227.018 30.1255 225.43 31.32C225.077 31.5806 225.606 32.0367 225.959 31.7761Z" fill="#161616"/>
<path d="M226.892 50.4317C227.295 51.713 228.077 52.864 229.211 53.7762C229.564 54.0585 230.093 53.6024 229.74 53.3201C228.707 52.4731 227.976 51.4524 227.623 50.2579C227.472 49.8453 226.741 50.019 226.892 50.4317Z" fill="#161616"/>
<path d="M233.849 46.4142C234.076 47.8693 234.656 49.194 235.639 50.4102C235.916 50.7577 236.571 50.4319 236.294 50.0845C235.387 48.9769 234.807 47.7607 234.605 46.4142C234.555 46.0233 233.799 46.0015 233.849 46.4142Z" fill="#161616"/>
<path d="M229.261 53.8849C231.984 54.6885 235.109 52.799 236.118 50.649C236.294 50.2581 235.563 50.0843 235.387 50.4752C234.53 52.2995 231.732 53.9283 229.463 53.2551C229.009 53.1248 228.808 53.7546 229.261 53.8849Z" fill="#161616"/>
<path d="M227.346 50.7794C229.161 50.5188 230.774 49.7804 232.059 48.6511C232.387 48.347 231.858 47.8909 231.53 48.195C230.32 49.2592 228.833 49.9107 227.144 50.1713C226.665 50.2365 226.867 50.8445 227.346 50.7794Z" fill="#161616"/>
<path d="M227.774 51.2137C229.892 50.6925 232.286 49.2591 233.244 47.5217C233.446 47.1525 232.79 46.805 232.589 47.196C231.706 48.7813 229.513 50.1278 227.547 50.6056C227.094 50.7142 227.295 51.3223 227.774 51.2137Z" fill="#161616"/>
<path d="M211.894 29.9955C210.457 28.5404 211.037 25.9343 211.743 24.2837C212.6 22.264 214.288 20.7438 216.734 20.1574C218.876 19.6362 221.17 19.7013 223.262 19.0064C225.581 18.2245 227.27 16.0745 229.942 16.2265C230.421 16.2482 230.421 15.5967 229.942 15.575C226.892 15.4012 225.027 17.9205 222.279 18.5937C219.632 19.267 216.683 19.0281 214.288 20.3528C212.398 21.3953 211.213 23.1544 210.684 25.0004C210.154 26.7595 209.877 28.9965 211.339 30.4515C211.667 30.7773 212.221 30.3212 211.894 29.9955Z" fill="#383838"/>
<path d="M219.96 27.5414C219.758 25.956 220.162 24.3924 221.246 23.0893C222.456 21.6342 224.296 20.9827 226.111 20.2443C227.623 19.6362 229.009 18.8761 230.093 17.7685C231.152 16.7261 231.681 15.1841 233.017 14.3806C232.841 14.3371 232.664 14.2937 232.488 14.272C233.748 16.8129 236.269 19.9185 234 22.6115C233.723 22.959 234.378 23.2848 234.656 22.9373C237.101 20.0271 234.504 16.7043 233.143 13.9462C233.068 13.7942 232.79 13.729 232.614 13.8376C231.152 14.6846 230.648 16.2048 229.513 17.3124C228.026 18.8109 226.085 19.4842 224.094 20.3095C220.817 21.6777 218.725 24.3272 219.153 27.5414C219.254 27.9541 220.036 27.9541 219.96 27.5414Z" fill="#383838"/>
<path d="M227.094 27.2374C228.707 24.653 231.354 22.6333 234.58 21.656C236.093 21.1999 237.681 20.9393 239.117 20.3095C240.504 19.7231 241.688 18.8979 242.722 17.9206C242.52 17.8989 242.319 17.8771 242.117 17.8554C243.05 19.5711 243.932 21.504 244.108 23.3934C244.285 25.4349 242.974 26.9985 241.537 28.4971C241.235 28.8228 241.764 29.2789 242.067 28.9531C243.503 27.4329 244.915 25.8258 244.865 23.7843C244.814 21.6343 243.781 19.4408 242.747 17.5297C242.646 17.3342 242.319 17.3125 242.142 17.4645C240.831 18.6807 239.269 19.6363 237.454 20.2009C235.916 20.6787 234.303 20.9393 232.816 21.5691C230.068 22.7202 227.825 24.6096 226.388 26.9117C226.211 27.2809 226.867 27.6066 227.094 27.2374Z" fill="#383838"/>
<path d="M242.974 27.3676C244.789 30.408 244.461 34.0132 242.142 36.7713C241.865 37.1188 242.52 37.4445 242.798 37.0971C245.293 34.1435 245.57 30.2777 243.629 27.0418C243.403 26.6726 242.747 26.9984 242.974 27.3676Z" fill="#383838"/>
<path opacity="0.14" d="M233.597 30.8862C233.673 31.9504 233.723 33.4923 233.597 35.3383C233.345 38.6394 233.143 41.4844 231.454 44.1557C229.337 47.4785 225.707 49.2159 223.287 50.0846C224.447 50.1498 226.312 50.1063 228.455 49.4982C230.219 48.9987 231.555 48.282 232.412 47.7174C232.891 49.3462 233.395 50.975 233.874 52.6039C234.631 51.822 235.362 51.0185 236.118 50.2366C235.462 49.1073 234.807 47.9563 234.152 46.827C234.681 46.0886 235.185 45.3067 235.689 44.4597C236.597 42.9829 237.328 41.5713 237.933 40.2248C238.26 40.3334 239.218 40.6157 240.075 40.2248C241.033 39.7905 241.26 38.8132 241.462 37.9227C241.663 36.9889 242.218 34.4914 240.504 33.4055C239.798 32.9494 238.563 32.6454 237.58 33.1014C237.05 33.362 236.773 33.753 236.622 33.9919C236.496 33.1014 236.395 32.211 236.269 31.3206C235.387 31.1903 234.479 31.0383 233.597 30.8862Z" fill="#666666"/>
<path opacity="0.2" d="M227.825 27.1942C229.236 25.8694 230.925 23.98 232.387 21.4824C233.421 19.7016 234.101 18.0511 234.53 16.6611C235.664 18.4203 235.563 19.8319 235.488 20.44C235.059 23.2199 232.135 24.9573 230.497 25.9346C229.463 26.5427 228.505 26.9336 227.825 27.1942Z" fill="#212121"/>
<path opacity="0.16" d="M232.992 29.6262C234.429 29.1919 236.118 28.5621 237.907 27.6282C241.159 25.9125 243.352 23.8711 244.713 22.3726C244.89 23.2847 245.066 25.0873 243.932 26.7378C242.117 29.4308 237.655 30.7338 232.992 29.6262Z" fill="#212121"/>
<path opacity="0.22" d="M216.481 28.4536C216.431 27.5415 216.507 26.2384 216.986 24.7399C218.12 21.3085 220.943 18.7459 221.372 18.963C221.725 19.1368 220.867 21.1782 216.481 28.4536Z" fill="#212121"/>
<path d="M217.717 42.4399C221.472 42.5919 225.127 41.9404 228.505 40.507C228.833 40.3767 228.556 39.9423 228.228 40.0944C224.951 41.4843 221.372 42.1141 217.742 41.9621C217.338 41.9404 217.364 42.4181 217.717 42.4399Z" fill="#161616"/>
<path d="M218.095 42.5263C218.599 43.3081 218.952 44.1551 219.153 45.0238C219.229 45.3278 219.758 45.1975 219.708 44.8935C219.506 43.9814 219.128 43.0909 218.599 42.2657C218.422 42.0051 217.918 42.2657 218.095 42.5263Z" fill="#161616"/>
<path d="M219.204 45.046C220.716 46.3056 223.161 45.6758 224.775 44.8722C226.716 43.9384 228.127 42.3747 228.606 40.507C228.682 40.2029 228.127 40.0726 228.051 40.3767C227.648 41.9186 226.615 43.2217 225.102 44.1338C223.665 44.9808 221.069 45.9364 219.607 44.6985C219.355 44.4813 218.952 44.8288 219.204 45.046Z" fill="#161616"/>
<path d="M218.851 43.4167C220.565 43.8076 222.531 43.3732 224.17 42.9389C225.758 42.5263 227.22 41.853 228.329 40.7671C228.581 40.5282 228.178 40.1808 227.925 40.4197C226.867 41.4404 225.531 42.0702 224.018 42.4611C222.481 42.852 220.59 43.3081 219.002 42.9389C218.649 42.8737 218.498 43.3515 218.851 43.4167Z" fill="#161616"/>
<path d="M219.103 43.6562C219.305 44.0688 219.506 44.4815 219.708 44.8941C219.834 45.1547 220.338 44.9593 220.237 44.6987C220.061 44.3077 219.935 43.9385 219.834 43.5259C219.708 43.6345 219.607 43.7214 219.481 43.8299C220.086 43.9168 220.691 43.9603 221.321 43.9603C221.624 43.9603 221.725 43.5259 221.397 43.4825C220.817 43.3956 220.363 43.4173 219.784 43.5693C219.607 43.6128 219.506 43.7865 219.607 43.9385C219.758 44.134 219.935 44.3512 220.086 44.5466C220.288 44.8072 220.741 44.5901 220.565 44.3077C220.489 44.1123 220.414 43.9168 220.338 43.7431C220.162 43.8082 219.985 43.8734 219.809 43.9385C220.061 44.2209 220.162 44.5249 220.061 44.8507C220.237 44.8072 220.414 44.7638 220.59 44.7204C220.237 44.2209 219.935 44.8072 219.859 44.9593C219.784 45.1547 220.086 45.3719 220.288 45.2416C222.355 43.8951 224.775 43.2219 227.22 42.5703C227.573 42.4835 227.421 42.0057 227.068 42.0925C224.573 42.7441 222.103 43.439 220.01 44.8072C220.162 44.8941 220.288 44.981 220.439 45.0896C220.54 44.8941 220.842 44.8507 220.893 44.5466C220.943 44.286 220.817 43.8951 220.489 43.8082C219.582 43.5476 219.91 44.6552 220.136 44.9593C220.288 45.1764 220.641 45.0679 220.666 44.829C220.716 44.3729 220.615 44.0471 220.338 43.6779C220.162 43.4607 219.733 43.5911 219.809 43.8734C219.91 44.2426 219.91 44.2209 220.086 44.5683C220.237 44.4815 220.414 44.3946 220.565 44.3295C220.414 44.134 220.237 43.9168 220.086 43.7214C220.036 43.8517 219.985 43.9603 219.91 44.0906C220.338 43.9385 220.767 43.9168 221.22 44.0037C221.246 43.8517 221.271 43.6779 221.296 43.5259C220.716 43.5259 220.212 43.5042 219.607 43.4173C219.38 43.3739 219.204 43.5259 219.254 43.7214C219.355 44.134 219.481 44.5032 219.658 44.8941C219.834 44.829 220.01 44.7638 220.187 44.6987C219.985 44.286 219.784 43.8734 219.582 43.4607C219.456 43.1133 218.952 43.3739 219.103 43.6562Z" fill="#161616"/>
<path d="M220.716 44.4376C221.598 43.9816 222.506 43.6341 223.489 43.33C223.413 43.178 223.338 43.026 223.262 42.874C222.38 43.2214 221.498 43.5689 220.641 43.8947C220.363 44.0033 220.565 44.4376 220.867 44.3508C223.237 43.5472 225.581 42.7219 227.724 41.5057C227.573 41.4189 227.446 41.332 227.295 41.2234C226.968 41.9835 225.506 42.0704 224.749 42.3093C224.119 42.5048 223.514 42.7654 222.884 42.9608C222.002 43.2214 220.968 43.178 220.288 43.8295C220.036 44.0684 220.439 44.4159 220.691 44.177C221.246 43.6341 222.279 43.6558 223.035 43.4386C223.791 43.2214 224.522 42.8957 225.304 42.6785C226.363 42.3962 227.421 42.3745 227.85 41.3754C227.925 41.18 227.623 40.9845 227.421 41.0931C225.329 42.2659 223.01 43.0911 220.691 43.873C220.767 44.025 220.842 44.177 220.918 44.329C221.8 43.9816 222.682 43.6341 223.539 43.3083C223.842 43.1997 223.615 42.7654 223.313 42.8522C222.304 43.1563 221.346 43.5472 220.414 44.0033C220.111 44.177 220.414 44.6114 220.716 44.4376Z" fill="#161616"/>
<path d="M227.522 42.0486C227.522 42.0269 227.497 42.0052 227.497 41.9835C227.497 41.9618 227.497 41.9835 227.497 42.0269C227.472 42.0486 227.421 42.0921 227.396 42.1138H227.421C227.346 42.1138 227.27 42.1355 227.194 42.1355C227.068 42.1138 227.068 41.9183 227.043 42.0486C227.043 42.0921 227.043 42.1138 227.068 42.1572C227.094 42.2441 227.144 42.2875 227.245 42.3527C227.371 42.4395 227.573 42.3744 227.623 42.2658C227.699 42.1355 227.648 42.0052 227.522 41.94C227.522 41.94 227.497 41.94 227.497 41.9183C227.522 41.94 227.573 41.9835 227.598 42.0052C227.623 42.0703 227.623 42.0703 227.623 42.0269C227.623 42.0052 227.623 41.9835 227.623 41.9835C227.623 41.9183 227.598 41.8532 227.573 41.8097C227.497 41.7229 227.396 41.6577 227.27 41.6577C226.942 41.6577 226.892 41.9835 226.993 42.1789C227.043 42.3092 227.169 42.3961 227.346 42.3527C227.472 42.3092 227.598 42.1572 227.522 42.0486Z" fill="#161616"/>
<path d="M227.573 40.0722C228.051 40.2459 228.455 40.5282 228.732 40.9191C228.909 41.1798 229.413 40.9409 229.211 40.6802C228.858 40.1807 228.354 39.8115 227.724 39.6161C227.371 39.4858 227.22 39.9636 227.573 40.0722Z" fill="#161616"/>
<path d="M220.691 45.3933C222.682 44.1771 224.875 43.3301 227.245 42.874C227.598 42.8089 227.447 42.3311 227.094 42.3962C224.649 42.8523 222.43 43.721 220.389 44.9589C220.111 45.1544 220.389 45.5887 220.691 45.3933Z" fill="#161616"/>
<path d="M220.187 45.0022C222.657 44.8936 224.951 44.2421 226.993 43.0476C227.295 42.8739 227.018 42.4395 226.715 42.635C224.749 43.786 222.556 44.4375 220.187 44.5244C219.809 44.5461 219.809 45.0239 220.187 45.0022Z" fill="#161616"/>
<path d="M222.481 44.4594C223.867 44.1988 225.153 43.7427 226.363 43.0912C226.665 42.9174 226.388 42.5048 226.085 42.6785C224.926 43.3084 223.691 43.7427 222.355 44.0033C221.977 44.0468 222.128 44.5245 222.481 44.4594Z" fill="#161616"/>
<path d="M220.741 45.3066C222.758 45.2632 224.623 44.7637 226.287 43.7864C226.589 43.6126 226.312 43.1783 226.01 43.3738C224.422 44.3076 222.657 44.7854 220.741 44.8288C220.389 44.8288 220.389 45.3283 220.741 45.3066Z" fill="#161616"/>
<path d="M220.741 45.2632C220.716 45.6324 221.12 45.6758 221.447 45.6324C222.203 45.5455 222.934 45.3935 223.665 45.2415C224.018 45.1546 223.867 44.6985 223.514 44.7637C223.136 44.8505 222.758 44.9157 222.355 44.9808C222.178 45.0026 221.321 45.046 221.296 45.2415C221.346 44.9591 220.767 44.9591 220.741 45.2632Z" fill="#161616"/>
<path d="M225.556 47.8039C225.808 47.1958 228.077 47.3261 230.043 47.5433C230.043 47.2175 230.118 46.7397 230.345 46.2185C230.522 45.8059 230.799 45.3932 231.807 44.4376C232.891 43.4169 233.446 42.9174 234.152 42.5482C234.681 42.2659 235.563 41.8967 236.798 41.7229C237.302 41.875 237.832 42.027 238.336 42.1573C238.487 41.7447 238.79 40.9628 239.369 39.4426C239.748 38.4219 239.974 37.9006 240.479 37.7269C240.983 37.5749 241.663 37.7269 242.016 38.0961C242.52 38.639 242.067 39.4209 241.789 40.7457C241.638 41.5058 241.764 41.3755 241.714 44.2205C241.663 47.1306 241.537 47.1089 241.562 48.3251C241.588 49.4544 241.764 51.0615 242.369 52.9944C242.924 52.7772 243.806 52.5383 244.865 52.56C247.335 52.5818 249.074 53.9717 250.36 55.0358C252.88 57.099 253.964 59.3794 254.695 60.9865C256.107 64.0921 256.283 66.6765 256.309 67.8058C256.334 69.5649 256.384 71.2155 255.351 73.1266C255.023 73.7347 254.116 75.3635 252.049 76.6014C251.192 77.1227 249.578 78.0782 247.486 77.9262C246.276 77.8394 245.192 77.405 244.033 76.6014C240.151 73.8867 238.361 68.9568 237.807 67.2412C236.748 64.1138 235.588 59.5748 235.387 53.9065C234.832 53.8848 234.177 53.7762 233.471 53.5373C230.875 52.6035 229.866 50.3666 229.665 49.8019C229.135 49.8236 227.245 49.8019 226.06 48.6726C225.808 48.412 225.455 48.0862 225.556 47.8039Z" fill="white"/>
<path d="M229.06 49.3245C227.724 49.2376 226.186 48.8032 225.833 47.5436C225.758 47.6739 225.657 47.8042 225.581 47.9345C227.522 47.5871 229.463 48.0866 231.404 47.8477C231.883 47.7825 231.681 47.1527 231.202 47.2179C229.261 47.4568 227.32 46.9573 225.38 47.3047C225.178 47.3482 225.077 47.5436 225.127 47.6957C225.556 49.2593 227.396 49.8457 229.085 49.9543C229.564 49.9977 229.564 49.3462 229.06 49.3245Z" fill="#161616"/>
<path d="M230.497 47.0006C230.194 45.4586 232.942 45.5455 233.975 45.7844C234.454 45.893 234.656 45.2632 234.177 45.1546C232.488 44.7637 229.362 45.046 229.766 47.1526C229.841 47.587 230.572 47.4132 230.497 47.0006Z" fill="#161616"/>
<path d="M231.58 45.5019C231.807 44.7418 232.286 44.0468 233.143 43.6993C234.152 43.3084 235.16 43.6993 236.093 44.0468C236.521 44.2205 236.924 43.6559 236.471 43.4821C235.311 43.0261 234.076 42.5917 232.841 43.0912C231.782 43.5038 231.127 44.3726 230.849 45.3281C230.749 45.7408 231.48 45.9145 231.58 45.5019Z" fill="#161616"/>
<path d="M234.227 42.8958C234.177 42.8524 235.034 42.2443 235.16 42.1792C235.513 42.0271 235.916 41.9403 236.319 41.9403C237.302 41.9403 238.185 42.3529 238.966 42.7872C239.369 43.0044 239.748 42.4615 239.344 42.2226C238.084 41.5276 236.546 40.9847 235.059 41.5059C234.429 41.7231 232.916 42.7004 233.673 43.3736C234.026 43.656 234.555 43.1999 234.227 42.8958Z" fill="#161616"/>
<path d="M241.714 48.3901C242.016 46.5441 242.117 44.7198 241.966 42.8521C241.89 41.788 242.016 40.9627 242.319 39.9202C242.47 39.3773 242.596 38.8126 242.419 38.2697C242.142 37.5313 241.184 36.9232 240.277 37.3141C239.697 37.5747 239.546 38.1611 239.344 38.6606C238.966 39.5945 238.613 40.5501 238.26 41.4839C238.109 41.8748 238.84 42.0486 238.991 41.6577C239.193 41.1147 239.395 40.5718 239.621 40.0506C239.748 39.7248 239.949 38.6389 240.252 38.4435C241.512 38.3131 242.016 38.6172 241.714 39.399C241.638 39.6596 241.562 39.8985 241.462 40.1591C241.336 40.5718 241.21 40.9627 241.159 41.3753C241.058 42.4178 241.285 43.5037 241.285 44.5678C241.285 45.8057 241.184 47.0219 240.983 48.2381C240.932 48.629 241.663 48.8028 241.714 48.3901Z" fill="#161616"/>
<path d="M228.656 50.0191C229.967 50.106 230.295 51.2787 230.9 52.0606C231.202 52.4732 231.58 52.8424 232.034 53.1464C232.916 53.7545 233.95 54.0803 235.084 54.1672C235.563 54.2106 235.563 53.5591 235.084 53.5156C233.168 53.3636 231.959 52.408 231.076 51.0181C230.522 50.1494 229.866 49.4544 228.656 49.3893C228.152 49.3459 228.177 49.9974 228.656 50.0191Z" fill="#161616"/>
<path d="M234.958 53.8848C235.74 56.2086 235.815 58.5975 236.042 60.9865C236.244 63.0062 236.622 65.026 237.277 66.9588C238.563 70.6943 240.781 74.1474 243.982 76.9272C244.335 77.2313 244.865 76.7535 244.512 76.4711C241.21 73.6044 238.966 69.9993 237.781 66.1118C236.521 62.0289 237.05 57.7506 235.689 53.7111C235.538 53.3202 234.807 53.4939 234.958 53.8848Z" fill="#161616"/>
<path d="M240.983 48.1296C241.361 51.7564 242.596 55.2964 244.663 58.4672C246.679 61.5511 249.78 64.2223 250.486 67.8274C250.561 68.2401 251.292 68.0663 251.217 67.6537C250.587 64.3743 247.99 61.8768 245.999 59.1404C243.604 55.8176 242.167 52.0387 241.739 48.1513C241.688 47.7169 240.932 47.7169 240.983 48.1296Z" fill="#161616"/>
<path d="M242.722 53.1683C246.478 52.1259 250.183 54.732 252.149 57.2513C254.216 59.9008 255.149 63.1585 255.578 66.3075C255.981 69.3914 255.704 72.7576 253.309 75.2334C251.091 77.5355 246.982 78.4477 244.184 76.3628C243.806 76.0804 243.277 76.5582 243.655 76.8188C246.301 78.7951 250.208 78.5128 252.805 76.6017C255.981 74.2779 256.762 70.499 256.435 67.0893C256.082 63.3756 254.998 59.4013 252.376 56.3608C250.183 53.8416 246.352 51.4744 242.546 52.5168C242.067 52.6688 242.243 53.2987 242.722 53.1683Z" fill="#161616"/>
<path opacity="0.15" d="M241.084 38.4874C239.748 38.9218 239.848 41.8754 239.949 44.0037C240.302 50.3235 240.479 53.4943 241.915 58.359C243.982 65.287 245.873 67.0895 246.906 67.9365C248.394 69.1527 251.242 70.9118 252.452 70.2169C254.368 69.1093 251.318 62.5071 250.561 60.9C248.015 55.4272 247.461 53.6029 245.57 53.0382C244.436 52.7125 243.327 52.8428 242.546 53.0382C241.462 51.0402 241.285 49.4331 241.31 48.3255C241.336 47.3916 241.512 47.3916 241.588 45.98C241.739 43.4173 241.21 43.2653 241.487 41.593C241.764 39.9642 242.495 38.9869 241.966 38.596C241.789 38.3788 241.361 38.4005 241.084 38.4874Z" fill="#666666"/>
<path opacity="0.15" d="M243.251 54.1455C245.041 55.644 246.276 57.0774 247.108 58.2067C249.15 60.9214 250.007 63.3538 250.309 64.2876C250.738 65.6124 250.939 66.7634 251.065 67.6104C250.637 66.4811 249.83 64.7871 248.419 62.8977C247.284 61.3775 246.553 60.8563 245.596 59.488C244.814 58.3587 243.831 56.6213 243.251 54.1455Z" fill="#666666"/>
</svg>
