<svg width="367" height="296" viewBox="0 0 367 296" fill="none" xmlns="http://www.w3.org/2000/svg">
<path d="M88.3068 245.935C112.7 245.935 137.094 245.935 161.487 245.935C185.8 245.935 210.114 245.935 234.401 245.935C248.142 245.935 261.91 245.935 275.651 245.935C276.157 245.935 276.157 245.079 275.651 245.079C251.258 245.079 226.864 245.079 202.471 245.079C178.158 245.079 153.844 245.079 129.557 245.079C115.816 245.079 102.048 245.079 88.3068 245.079C87.8008 245.079 87.8008 245.935 88.3068 245.935V245.935Z" fill="#E8E8E8"/>
<path d="M280.578 228.181C280.365 236.402 281.137 244.622 282.895 252.643C283.001 253.185 283.773 252.957 283.667 252.414C281.936 244.479 281.164 236.345 281.403 228.181C281.377 227.639 280.578 227.639 280.578 228.181V228.181Z" fill="#E8E8E8"/>
<path d="M312.295 228.838C313.04 236.43 312.588 244.108 310.963 251.53C310.857 252.072 311.602 252.3 311.735 251.758C313.386 244.251 313.866 236.516 313.094 228.838C313.04 228.295 312.241 228.295 312.295 228.838V228.838Z" fill="#E8E8E8"/>
<path d="M283.214 253.442C292.428 255.954 302.175 255.611 311.203 252.414C311.682 252.243 311.469 251.415 310.99 251.587C302.069 254.726 292.508 255.097 283.427 252.614C282.921 252.5 282.708 253.328 283.214 253.442V253.442Z" fill="#E8E8E8"/>
<path d="M280.951 228.581C291.31 230.95 302.042 230.893 312.375 228.438C312.881 228.324 312.667 227.496 312.161 227.61C301.962 230.036 291.363 230.065 281.164 227.753C280.658 227.639 280.445 228.467 280.951 228.581V228.581Z" fill="#E8E8E8"/>
<path d="M287.262 228.895C285.877 225.555 287.129 221.473 288.168 218.191C289.233 214.794 290.751 211.569 292.615 208.6C292.402 208.629 292.189 208.658 291.976 208.686C292.588 209.428 293.254 209.942 294.08 210.37C294.399 210.513 294.745 210.285 294.665 209.885C294.346 208.344 293.787 206.831 294.426 205.289C294.878 204.205 295.518 203.12 296.05 202.093C295.864 202.15 295.677 202.207 295.491 202.235C296.05 202.606 296.609 202.949 297.169 203.32C297.541 203.577 297.861 203.092 297.728 202.721C297.169 201.408 296.796 200.095 297.568 198.782C298.021 197.982 298.607 197.269 299.113 196.527C300.231 194.928 301.403 193.33 302.575 191.76C304.812 188.763 307.128 185.851 309.525 182.997C309.312 182.969 309.099 182.94 308.886 182.912C312.295 187.707 314.452 193.444 315.038 199.438C315.331 202.321 315.251 205.289 314.771 208.144C314.532 209.599 314.185 211.027 313.759 212.425C313.679 212.711 313.573 212.996 313.493 213.253C313.2 214.052 312.721 214.395 311.948 214.566C311.416 214.68 311.123 214.595 310.67 214.966C310.457 215.137 310.404 215.422 310.59 215.651C311.176 216.307 311.416 216.421 311.203 217.306C311.07 217.877 310.75 218.476 310.51 219.047C310.031 220.189 309.498 221.302 308.939 222.387C307.794 224.613 306.489 226.725 305.025 228.723C304.705 229.152 305.264 229.751 305.584 229.323C308.407 225.441 310.644 221.188 312.321 216.621C312.375 216.478 312.321 216.307 312.215 216.193C311.869 215.822 311.522 215.422 311.15 215.051C311.123 215.28 311.096 215.508 311.07 215.736C311.682 215.28 312.375 215.594 313.014 215.308C313.52 215.108 313.786 214.709 313.999 214.195C314.585 212.853 314.958 211.312 315.277 209.885C315.943 206.745 316.156 203.52 315.943 200.323C315.49 193.872 313.28 187.621 309.605 182.483C309.472 182.284 309.179 182.169 308.966 182.398C306.01 185.909 303.16 189.534 300.444 193.244C299.219 194.9 297.914 196.555 296.849 198.353C295.89 199.98 296.343 201.522 297.009 203.177C297.195 202.977 297.382 202.778 297.568 202.578C297.009 202.207 296.45 201.864 295.89 201.493C295.704 201.379 295.438 201.436 295.331 201.636C294.665 202.949 293.627 204.405 293.254 205.86C292.934 207.145 293.6 208.829 293.866 210.085C294.053 209.913 294.266 209.771 294.452 209.599C293.68 209.228 293.068 208.743 292.508 208.058C292.322 207.83 292.002 207.915 291.869 208.144C289.792 211.455 288.168 215.08 287.049 218.905C286.09 222.216 285.158 225.983 286.516 229.294C286.783 229.808 287.475 229.38 287.262 228.895V228.895Z" fill="#E8E8E8"/>
<path d="M308.939 189.476C307.874 202.407 299.619 212.768 296.183 224.927C296.023 225.47 296.796 225.669 296.955 225.156C300.391 212.911 308.673 202.521 309.738 189.476C309.791 188.906 308.966 188.934 308.939 189.476V189.476Z" fill="#E8E8E8"/>
<path d="M298.873 196.355C299.725 201.065 300.71 205.718 301.829 210.342C301.962 210.884 302.734 210.656 302.601 210.113C301.483 205.489 300.497 200.808 299.645 196.127C299.565 195.585 298.793 195.813 298.873 196.355V196.355Z" fill="#E8E8E8"/>
<path d="M307.874 199.381C310.191 197.583 312.188 195.442 313.919 192.959C314.239 192.531 313.546 192.102 313.227 192.531C311.602 194.871 309.685 196.926 307.475 198.639C307.075 198.981 307.475 199.723 307.874 199.381V199.381Z" fill="#E8E8E8"/>
<path d="M305.397 187.164C306.116 189.619 306.542 192.616 308.3 194.472C308.673 194.871 309.232 194.243 308.859 193.872C307.235 192.131 306.809 189.191 306.143 186.936C306.01 186.422 305.238 186.651 305.397 187.164V187.164Z" fill="#E8E8E8"/>
<path d="M285.664 228.666C284.04 227.296 283.054 225.384 282.229 223.386C281.297 221.045 280.498 218.648 279.779 216.222C278.421 211.569 277.435 206.774 276.85 201.95C275.651 191.846 276.61 181.627 275.465 171.494C275.225 171.58 274.959 171.637 274.719 171.723C277.702 178.915 284.679 183.225 290.484 187.507C290.431 187.307 290.378 187.107 290.351 186.908C289.552 188.135 288.753 189.362 287.954 190.59C287.768 190.875 288.008 191.246 288.301 191.246C289.339 191.246 290.245 191.103 291.23 190.732C291.07 190.675 290.937 190.59 290.777 190.533C291.763 192.16 292.748 193.786 293.733 195.413C293.76 195.242 293.786 195.071 293.786 194.9C293.307 195.385 292.908 195.927 292.508 196.527C292.375 196.726 292.508 197.126 292.748 197.155C294.932 197.497 295.704 199.724 296.263 201.722C296.423 202.235 297.195 202.036 297.035 201.493C296.37 199.238 295.411 196.698 292.961 196.327C293.041 196.527 293.121 196.755 293.201 196.955C293.547 196.384 293.893 195.984 294.346 195.528C294.479 195.413 294.505 195.157 294.399 195.014C293.414 193.387 292.428 191.76 291.443 190.133C291.363 189.99 291.177 189.876 290.99 189.933C290.085 190.247 289.206 190.418 288.274 190.39C288.381 190.618 288.514 190.818 288.62 191.046C289.419 189.819 290.218 188.592 291.017 187.364C291.15 187.164 291.044 186.908 290.884 186.765C285.185 182.569 278.341 178.373 275.412 171.294C275.252 170.923 274.613 171.095 274.666 171.523C275.838 182.027 274.799 192.645 276.184 203.12C276.85 208.172 277.941 213.139 279.459 217.963C280.684 221.873 281.963 226.64 285.078 229.294C285.504 229.608 286.064 229.009 285.664 228.666V228.666Z" fill="#E8E8E8"/>
<path d="M274.879 172.35C277.036 178.744 278.847 185.48 281.75 191.56C283.188 194.557 284.759 197.497 286.117 200.551C287.582 203.862 288.887 207.23 290.218 210.57C290.404 211.084 291.097 210.627 290.91 210.142C289.659 206.945 288.381 203.748 287.022 200.608C285.691 197.526 284.146 194.586 282.655 191.589C279.672 185.48 277.835 178.63 275.625 172.151C275.465 171.608 274.693 171.837 274.879 172.35V172.35Z" fill="#E8E8E8"/>
<path d="M275.891 194.043C278.767 194.414 281.909 194.586 284.093 196.898C284.466 197.297 285.025 196.669 284.652 196.298C282.309 193.844 278.98 193.615 275.891 193.216C275.385 193.13 275.385 193.986 275.891 194.043V194.043Z" fill="#E8E8E8"/>
<path d="M283.587 182.483C283.108 184.339 282.788 186.251 282.655 188.192C282.549 189.848 282.362 191.788 282.895 193.387C283.055 193.901 283.827 193.672 283.667 193.159C283.161 191.646 283.347 189.762 283.454 188.163C283.587 186.308 283.907 184.481 284.359 182.683C284.493 182.169 283.72 181.941 283.587 182.483V182.483Z" fill="#E8E8E8"/>
<path d="M277.702 209.599C279.779 209.657 281.776 209.685 283.8 210.285C285.797 210.884 287.768 211.512 289.765 212.14C290.271 212.283 290.484 211.455 289.978 211.312C287.848 210.656 285.744 209.942 283.587 209.343C281.643 208.8 279.699 208.829 277.702 208.772C277.196 208.715 277.196 209.571 277.702 209.599V209.599Z" fill="#E8E8E8"/>
<path d="M306.835 227.867C308.62 227.61 310.377 227.61 312.161 227.867C312.082 227.667 312.002 227.439 311.922 227.239C311.762 227.496 310.164 227.525 309.845 227.553C309.126 227.667 308.38 227.782 307.661 227.953C307.554 227.981 306.835 228.067 306.809 228.153C306.862 228.01 307.927 228.038 308.087 228.038C308.859 228.038 309.632 228.124 310.404 228.181C310.404 227.896 310.404 227.61 310.404 227.325C309.738 227.296 309.152 227.382 308.487 227.582C308.06 227.696 308.14 228.41 308.593 228.41C309.632 228.41 310.564 228.181 311.576 227.896C312.082 227.753 311.869 226.925 311.363 227.068C310.457 227.325 309.552 227.553 308.593 227.553C308.62 227.839 308.673 228.124 308.7 228.381C309.259 228.21 309.818 228.153 310.404 228.153C310.91 228.153 310.91 227.325 310.404 227.296C309.232 227.239 307.528 226.783 306.463 227.496C306.037 227.782 305.424 228.524 305.983 228.98C306.223 229.18 306.489 229.066 306.782 229.037C307.581 228.866 308.353 228.666 309.152 228.524C310.084 228.352 311.948 228.609 312.588 227.667C312.721 227.468 312.588 227.068 312.348 227.039C310.484 226.754 308.673 226.754 306.809 227.011C306.329 227.068 306.329 227.924 306.835 227.867V227.867Z" fill="#E8E8E8"/>
<path d="M281.297 228.409C281.67 228.295 282.043 228.21 282.415 228.181C282.602 228.181 282.762 228.153 282.948 228.181C283.028 228.181 283.401 228.153 283.427 228.181C283.401 228.038 283.347 227.896 283.321 227.753C283.321 227.782 283.294 227.81 283.294 227.81C283.454 227.724 283.614 227.61 283.774 227.525C283.747 227.525 283.72 227.525 283.72 227.525C283.8 227.61 283.907 227.724 283.987 227.81C283.987 227.782 283.987 227.753 283.96 227.753C283.827 227.211 283.081 227.439 283.188 227.981C283.188 228.01 283.188 228.038 283.214 228.038C283.241 228.181 283.374 228.295 283.481 228.324C283.507 228.324 283.534 228.324 283.534 228.324C283.747 228.381 283.933 228.267 284.013 228.038C284.013 228.01 284.04 227.981 284.04 227.981C284.093 227.839 284.04 227.667 283.933 227.553C283.64 227.239 283.001 227.296 282.628 227.296C282.096 227.296 281.537 227.41 281.031 227.553C280.605 227.724 280.818 228.552 281.297 228.409V228.409Z" fill="#E8E8E8"/>
<path d="M281.909 234.147C291.629 235.945 301.722 236.801 311.309 233.719C311.789 233.547 311.602 232.748 311.096 232.891C301.669 235.916 291.709 235.089 282.122 233.319C281.616 233.233 281.403 234.061 281.909 234.147V234.147Z" fill="#E8E8E8"/>
<path d="M315.384 245.878C332.454 245.878 349.55 245.878 366.621 245.878C367.127 245.878 367.127 245.022 366.621 245.022C349.55 245.022 332.454 245.022 315.384 245.022C314.851 245.022 314.851 245.878 315.384 245.878V245.878Z" fill="#E8E8E8"/>
<path d="M302.468 264.231C318.553 264.231 334.664 264.231 350.749 264.231C351.255 264.231 351.255 263.375 350.749 263.375C334.664 263.375 318.553 263.375 302.468 263.375C301.962 263.375 301.962 264.231 302.468 264.231V264.231Z" fill="#E8E8E8"/>
<path d="M309.791 264.146C307.874 265.858 305.957 267.542 304.066 269.255C303.666 269.597 304.226 270.197 304.625 269.854C306.542 268.142 308.46 266.458 310.351 264.745C310.75 264.403 310.164 263.775 309.791 264.146V264.146Z" fill="#E8E8E8"/>
<path d="M304.305 270.168C304.811 270.168 304.811 269.312 304.305 269.312C303.8 269.312 303.8 270.168 304.305 270.168V270.168Z" fill="#E8E8E8"/>
<path d="M312.428 269.312C296.21 269.312 279.992 269.312 263.774 269.312C263.268 269.312 263.268 270.168 263.774 270.168C279.992 270.168 296.21 270.168 312.428 270.168C312.934 270.168 312.934 269.312 312.428 269.312V269.312Z" fill="#E8E8E8"/>
<path d="M263.694 278.16C266.57 275.592 269.526 273.137 272.562 270.768C272.962 270.454 272.589 269.712 272.163 270.026C269.074 272.423 266.064 274.935 263.135 277.533C262.736 277.904 263.295 278.503 263.694 278.16V278.16Z" fill="#E8E8E8"/>
<path d="M21.2515 262.576C40.0525 262.576 58.8536 262.576 77.6546 262.576C82.9807 262.576 88.3067 262.576 93.6328 262.576C94.1388 262.576 94.1388 261.72 93.6328 261.72C74.8318 261.72 56.0307 261.72 37.2297 261.72C31.9036 261.72 26.5776 261.72 21.2515 261.72C20.7455 261.72 20.7455 262.576 21.2515 262.576V262.576Z" fill="#E8E8E8"/>
<path d="M31.0781 270.026C33.608 267.714 36.1645 265.402 38.6944 263.09C39.0939 262.719 38.508 262.119 38.1352 262.49C35.6053 264.802 33.0488 267.114 30.5189 269.426C30.1194 269.769 30.7053 270.397 31.0781 270.026V270.026Z" fill="#E8E8E8"/>
<path d="M21.9173 270.853C39.3868 270.853 56.8563 270.853 74.3258 270.853C74.8318 270.853 74.8318 269.997 74.3258 269.997C56.8563 269.997 39.3868 269.997 21.9173 269.997C21.4113 269.997 21.4113 270.853 21.9173 270.853V270.853Z" fill="#E8E8E8"/>
<path d="M68.2275 270.682C66.2302 273.08 64.1797 275.42 62.1025 277.761C61.7563 278.161 62.3155 278.76 62.6617 278.36C64.7389 276.02 66.7628 273.679 68.7867 271.282C69.1595 270.882 68.5737 270.283 68.2275 270.682V270.682Z" fill="#E8E8E8"/>
<path d="M54.5927 279.131C69.9584 279.131 85.2975 279.131 100.663 279.131C101.169 279.131 101.169 278.275 100.663 278.275C85.2975 278.275 69.9584 278.275 54.5927 278.275C54.0867 278.275 54.0867 279.131 54.5927 279.131V279.131Z" fill="#E8E8E8"/>
<path d="M43.7009 248.219C50.1987 248.219 56.6965 248.219 63.221 248.219C63.7269 248.219 63.7269 247.362 63.221 247.362C56.7232 247.362 50.2254 247.362 43.7009 247.362C43.1949 247.362 43.1949 248.219 43.7009 248.219V248.219Z" fill="#E8E8E8"/>
<path d="M68.1476 251.016C70.1449 251.016 72.1688 251.016 74.166 251.016C74.672 251.016 74.672 250.16 74.166 250.16C72.1688 250.16 70.1449 250.16 68.1476 250.16C67.615 250.16 67.615 251.016 68.1476 251.016V251.016Z" fill="#E8E8E8"/>
<path d="M53.6873 98.3948C53.6873 103.047 53.6873 107.728 53.6873 112.381C53.6873 112.923 54.4862 112.923 54.4862 112.381C54.4862 107.728 54.4862 103.047 54.4862 98.3948C54.4862 97.8525 53.6873 97.8525 53.6873 98.3948V98.3948Z" fill="#E8E8E8"/>
<path d="M40.2922 113.066C50.9976 113.066 61.703 113.066 72.4084 113.066C72.9144 113.066 72.9144 112.21 72.4084 112.21C61.703 112.21 50.9976 112.21 40.2922 112.21C39.7863 112.21 39.7863 113.066 40.2922 113.066V113.066Z" fill="#E8E8E8"/>
<path d="M62.715 113.466C62.715 117.062 62.715 120.63 62.715 124.226C62.715 124.769 63.5139 124.769 63.5139 124.226C63.5139 120.63 63.5139 117.062 63.5139 113.466C63.5139 112.895 62.715 112.895 62.715 113.466V113.466Z" fill="#E8E8E8"/>
<path d="M53.8471 125.711C62.3688 125.711 70.9171 125.711 79.4388 125.711C79.9448 125.711 79.9448 124.854 79.4388 124.854C70.9171 124.854 62.3688 124.854 53.8471 124.854C53.3145 124.854 53.3145 125.711 53.8471 125.711V125.711Z" fill="#E8E8E8"/>
<path d="M13.7745 98.3948C13.7745 103.047 13.7745 107.728 13.7745 112.381C13.7745 112.923 14.5734 112.923 14.5734 112.381C14.5734 107.728 14.5734 103.047 14.5734 98.3948C14.5734 97.8525 13.7745 97.8525 13.7745 98.3948V98.3948Z" fill="#E8E8E8"/>
<path d="M0.379482 113.066C11.0849 113.066 21.7903 113.066 32.4957 113.066C33.0017 113.066 33.0017 112.21 32.4957 112.21C21.7903 112.21 11.0849 112.21 0.379482 112.21C-0.126494 112.21 -0.126494 113.066 0.379482 113.066V113.066Z" fill="#E8E8E8"/>
<path d="M22.8023 113.466C22.8023 117.062 22.8023 120.63 22.8023 124.226C22.8023 124.769 23.6012 124.769 23.6012 124.226C23.6012 120.63 23.6012 117.062 23.6012 113.466C23.6012 112.895 22.8023 112.895 22.8023 113.466V113.466Z" fill="#E8E8E8"/>
<path d="M13.9343 125.711C22.456 125.711 31.0044 125.711 39.5261 125.711C40.0321 125.711 40.0321 124.854 39.5261 124.854C31.0044 124.854 22.456 124.854 13.9343 124.854C13.4017 124.854 13.4017 125.711 13.9343 125.711V125.711Z" fill="#E8E8E8"/>
<path d="M20.7319 68.6435C20.7319 73.2961 20.7319 77.9772 20.7319 82.6297C20.7319 83.172 21.5308 83.172 21.5308 82.6297C21.5308 77.9772 21.5308 73.2961 21.5308 68.6435C21.5308 68.1012 20.7319 68.1012 20.7319 68.6435V68.6435Z" fill="#E8E8E8"/>
<path d="M7.33683 83.3148C18.0422 83.3148 28.7476 83.3148 39.453 83.3148C39.959 83.3148 39.959 82.4585 39.453 82.4585C28.7476 82.4585 18.0422 82.4585 7.33683 82.4585C6.83086 82.4585 6.83086 83.3148 7.33683 83.3148V83.3148Z" fill="#E8E8E8"/>
<path d="M29.7596 83.7144C29.7596 87.3108 29.7596 90.8787 29.7596 94.4752C29.7596 95.0175 30.5585 95.0175 30.5585 94.4752C30.5585 90.8787 30.5585 87.3108 30.5585 83.7144C30.5585 83.1435 29.7596 83.1435 29.7596 83.7144V83.7144Z" fill="#E8E8E8"/>
<path d="M20.8917 95.9594C29.4134 95.9594 37.9617 95.9594 46.4834 95.9594C46.9894 95.9594 46.9894 95.1031 46.4834 95.1031C37.9617 95.1031 29.4134 95.1031 20.8917 95.1031C20.3591 95.1031 20.3591 95.9594 20.8917 95.9594V95.9594Z" fill="#E8E8E8"/>
<path d="M268.754 88.3761C268.754 89.5178 268.754 90.631 268.754 91.7728C268.754 92.3151 269.553 92.3151 269.553 91.7728C269.553 90.631 269.553 89.5178 269.553 88.3761C269.553 87.8338 268.754 87.8338 268.754 88.3761V88.3761Z" fill="#E8E8E8"/>
<path d="M269.393 89.0612C287.715 89.0612 306.036 89.0612 324.358 89.0612C324.864 89.0612 324.864 88.2049 324.358 88.2049C306.036 88.2049 287.715 88.2049 269.393 88.2049C268.887 88.2049 268.887 89.0612 269.393 89.0612V89.0612Z" fill="#E8E8E8"/>
<path d="M269.872 92.2009C288.034 92.2009 306.196 92.2009 324.332 92.2009C324.838 92.2009 324.838 91.3446 324.332 91.3446C306.17 91.3446 288.008 91.3446 269.872 91.3446C269.367 91.3446 269.367 92.2009 269.872 92.2009V92.2009Z" fill="#E8E8E8"/>
<path d="M324.225 88.3761C324.118 89.5464 324.172 90.7167 324.358 91.8869C324.438 92.4293 325.21 92.2009 325.13 91.6586C324.944 90.574 324.917 89.4608 325.024 88.3761C325.077 87.8338 324.278 87.8338 324.225 88.3761V88.3761Z" fill="#E8E8E8"/>
<path d="M273.148 88.4047C273.148 80.4411 273.148 72.4775 273.148 64.5139C273.148 63.9716 272.349 63.9716 272.349 64.5139C272.349 72.4775 272.349 80.4411 272.349 88.4047C272.349 88.9755 273.148 88.9755 273.148 88.4047V88.4047Z" fill="#E8E8E8"/>
<path d="M273.148 64.6566C275.412 63.6862 277.808 63.8289 279.912 65.1704C280.365 65.4559 280.764 64.7137 280.312 64.4283C278.048 63.0011 275.358 62.7728 272.935 63.8289C272.456 64.0287 272.669 64.8564 273.148 64.6566V64.6566Z" fill="#E8E8E8"/>
<path d="M279.779 64.9706C279.779 72.6202 279.779 80.2984 279.779 87.948C279.779 88.4903 280.578 88.4903 280.578 87.948C280.578 80.2984 280.578 72.6202 280.578 64.9706C280.578 64.4283 279.779 64.4283 279.779 64.9706V64.9706Z" fill="#E8E8E8"/>
<path d="M280.684 71.3643C282.309 70.6507 284.013 70.7649 285.531 71.7639C285.984 72.0493 286.383 71.3072 285.931 71.0218C284.253 69.9371 282.282 69.7373 280.471 70.5366C279.992 70.7364 280.205 71.5641 280.684 71.3643V71.3643Z" fill="#E8E8E8"/>
<path d="M285.371 71.7354C285.371 77.1015 285.371 82.4391 285.371 87.8053C285.371 88.3476 286.17 88.3476 286.17 87.8053C286.17 82.4391 286.17 77.1015 286.17 71.7354C286.17 71.1931 285.371 71.1931 285.371 71.7354V71.7354Z" fill="#E8E8E8"/>
<path d="M273.255 71.2216C275.518 70.6793 277.755 70.8505 279.939 71.6783C280.418 71.8496 280.631 71.0218 280.152 70.8505C277.835 69.9657 275.438 69.8515 273.042 70.3938C272.562 70.508 272.775 71.3358 273.255 71.2216V71.2216Z" fill="#E8E8E8"/>
<path d="M280.125 81.1261C281.83 80.6409 283.534 80.5838 285.265 80.9834C285.771 81.0976 285.984 80.2698 285.478 80.1557C283.614 79.7275 281.776 79.756 279.912 80.2984C279.433 80.4411 279.619 81.2688 280.125 81.1261V81.1261Z" fill="#E8E8E8"/>
<path d="M295.438 88.1192C295.438 86.5208 295.438 84.9224 295.438 83.324C295.438 82.7816 294.639 82.7816 294.639 83.324C294.639 84.9224 294.639 86.5208 294.639 88.1192C294.639 88.6616 295.438 88.6616 295.438 88.1192V88.1192Z" fill="#E8E8E8"/>
<path d="M295.038 83.5808C303.693 83.5808 312.321 83.5808 320.976 83.5808C321.482 83.5808 321.482 82.7245 320.976 82.7245C312.321 82.7245 303.693 82.7245 295.038 82.7245C294.506 82.7245 294.506 83.5808 295.038 83.5808V83.5808Z" fill="#E8E8E8"/>
<path d="M321.242 84.0375C321.748 84.0375 321.748 83.1812 321.242 83.1812C320.71 83.1812 320.71 84.0375 321.242 84.0375V84.0375Z" fill="#E8E8E8"/>
<path d="M320.843 83.6094C320.843 85.0651 320.843 86.5208 320.843 87.9765C320.843 88.5188 321.642 88.5188 321.642 87.9765C321.642 86.5208 321.642 85.0651 321.642 83.6094C321.642 83.0671 320.843 83.0671 320.843 83.6094V83.6094Z" fill="#E8E8E8"/>
<path d="M300.471 83.01C300.471 81.4972 300.471 80.0129 300.471 78.5001C300.471 77.9578 299.672 77.9578 299.672 78.5001C299.672 80.0129 299.672 81.4972 299.672 83.01C299.672 83.5523 300.471 83.5523 300.471 83.01V83.01Z" fill="#E8E8E8"/>
<path d="M300.071 78.7856C308.566 78.7856 317.061 78.7856 325.583 78.7856C326.089 78.7856 326.089 77.9293 325.583 77.9293C317.088 77.9293 308.593 77.9293 300.071 77.9293C299.565 77.9293 299.565 78.7856 300.071 78.7856V78.7856Z" fill="#E8E8E8"/>
<path d="M325.317 78.3574C325.317 79.6133 325.317 80.8692 325.317 82.1251C325.317 82.6675 326.116 82.6675 326.116 82.1251C326.116 80.8692 326.116 79.6133 326.116 78.3574C326.116 77.7866 325.317 77.7866 325.317 78.3574V78.3574Z" fill="#E8E8E8"/>
<path d="M320.683 83.7236C322.228 83.7236 323.772 83.7236 325.317 83.7236C325.823 83.7236 325.823 82.8673 325.317 82.8673C323.772 82.8673 322.228 82.8673 320.683 82.8673C320.151 82.8673 320.151 83.7236 320.683 83.7236V83.7236Z" fill="#E8E8E8"/>
<path d="M325.264 82.1537C325.21 82.4677 325.21 82.7531 325.29 83.0385C325.343 83.2669 325.583 83.4096 325.77 83.324C325.983 83.2669 326.116 83.01 326.036 82.8102C326.009 82.6675 325.983 82.4962 326.009 82.382C326.036 82.1537 325.956 81.8968 325.743 81.8683C325.557 81.8112 325.29 81.9253 325.264 82.1537V82.1537Z" fill="#E8E8E8"/>
<path d="M306.143 78.5572C306.489 80.0129 306.569 81.4972 306.383 83.01C306.329 83.5523 307.128 83.5523 307.182 83.01C307.368 81.4401 307.261 79.8702 306.915 78.3289C306.782 77.8151 306.01 78.0434 306.143 78.5572V78.5572Z" fill="#E8E8E8"/>
<path d="M312.161 83.5238C312.348 84.9509 312.241 86.3496 311.922 87.7196C311.789 88.262 312.561 88.4903 312.694 87.948C313.067 86.4066 313.147 84.8653 312.934 83.2954C312.88 82.7531 312.108 82.9814 312.161 83.5238V83.5238Z" fill="#E8E8E8"/>
<path d="M306.942 118.261C306.942 120.516 306.942 122.742 306.942 124.997C306.942 125.539 307.741 125.539 307.741 124.997C307.741 122.742 307.741 120.516 307.741 118.261C307.741 117.69 306.942 117.69 306.942 118.261V118.261Z" fill="#E8E8E8"/>
<path d="M300.764 125.111C306.09 125.111 311.416 125.111 316.742 125.111C317.248 125.111 317.248 124.255 316.742 124.255C311.416 124.255 306.09 124.255 300.764 124.255C300.258 124.255 300.258 125.111 300.764 125.111V125.111Z" fill="#E8E8E8"/>
<path d="M291.683 29.0917C291.683 34.2295 291.683 39.3958 291.683 44.5336C291.683 45.0759 292.482 45.0759 292.482 44.5336C292.482 39.3958 292.482 34.2295 292.482 29.0917C292.482 28.5494 291.683 28.5494 291.683 29.0917V29.0917Z" fill="#E8E8E8"/>
<path d="M292.695 29.0632C298.766 29.0632 304.812 29.0632 310.883 29.0632C311.389 29.0632 311.389 28.2069 310.883 28.2069C304.812 28.2069 298.766 28.2069 292.695 28.2069C292.189 28.2069 292.189 29.0632 292.695 29.0632V29.0632Z" fill="#E8E8E8"/>
<path d="M310.91 28.949C310.91 33.9155 310.91 38.882 310.91 43.82C310.91 44.3624 311.709 44.3624 311.709 43.82C311.709 38.8535 311.709 33.887 311.709 28.949C311.709 28.4067 310.91 28.4067 310.91 28.949V28.949Z" fill="#E8E8E8"/>
<path d="M291.976 45.0189C298.42 45.0189 304.865 45.0189 311.309 45.0189C311.815 45.0189 311.815 44.1626 311.309 44.1626C304.865 44.1626 298.42 44.1626 291.976 44.1626C291.47 44.1626 291.47 45.0189 291.976 45.0189V45.0189Z" fill="#E8E8E8"/>
<path d="M293.467 30.8614C293.467 34.7718 293.467 38.6537 293.467 42.5641C293.467 43.1065 294.266 43.1065 294.266 42.5641C294.266 38.6537 294.266 34.7718 294.266 30.8614C294.266 30.3191 293.467 30.3191 293.467 30.8614V30.8614Z" fill="#E8E8E8"/>
<path d="M294.053 31.2039C299.033 31.2039 304.039 31.2039 309.019 31.2039C309.525 31.2039 309.525 30.3476 309.019 30.3476C304.039 30.3476 299.033 30.3476 294.053 30.3476C293.547 30.3476 293.547 31.2039 294.053 31.2039V31.2039Z" fill="#E8E8E8"/>
<path d="M308.726 30.8614C308.726 34.4864 308.726 38.0828 308.726 41.7078C308.726 42.2502 309.525 42.2502 309.525 41.7078C309.525 38.0828 309.525 34.4864 309.525 30.8614C309.525 30.3191 308.726 30.3191 308.726 30.8614V30.8614Z" fill="#E8E8E8"/>
<path d="M294.053 42.9923C299.006 42.9923 303.959 42.9923 308.939 42.9923C309.445 42.9923 309.445 42.136 308.939 42.136C303.986 42.136 299.033 42.136 294.053 42.136C293.547 42.136 293.547 42.9923 294.053 42.9923V42.9923Z" fill="#E8E8E8"/>
<path d="M303.48 37.8545C301.376 36.1419 304.519 32.574 305.983 34.7147C307.341 36.6557 305.131 38.9962 303.24 37.9116C302.788 37.6547 302.388 38.3968 302.841 38.6537C304.066 39.3673 305.69 39.1675 306.569 37.9401C307.475 36.7128 307.368 34.7718 306.223 33.7443C305.025 32.6882 303.32 33.4017 302.495 34.6006C301.616 35.9135 301.882 37.6261 303.08 38.5966C303.507 38.9106 303.879 38.1685 303.48 37.8545V37.8545Z" fill="#E8E8E8"/>
<path d="M300.95 42.0789C300.844 39.824 303.427 38.9677 305.051 38.9677C307.048 38.9677 307.688 40.8801 308.513 42.5071C308.753 42.9923 309.445 42.5641 309.206 42.0789C308.646 40.9943 308.114 39.5671 307.182 38.7679C306.329 38.0543 305.264 38.0828 304.252 38.197C302.388 38.4254 300.018 39.6527 300.151 42.0789C300.178 42.6212 300.977 42.6212 300.95 42.0789V42.0789Z" fill="#E8E8E8"/>
<path d="M294.399 40.0238C294.985 38.8535 297.142 39.3102 297.941 39.7669C298.766 40.2521 299.246 41.0513 299.459 42.0218C299.565 42.5641 300.338 42.3358 300.231 41.7935C299.911 40.3092 298.953 39.1389 297.568 38.6537C296.396 38.2541 294.399 38.2256 293.733 39.5671C293.467 40.0809 294.159 40.509 294.399 40.0238V40.0238Z" fill="#E8E8E8"/>
<path d="M295.944 37.9116C295.065 37.883 295.278 36.4844 295.651 35.9992C296.13 35.3712 297.089 35.2856 297.648 35.885C298.101 36.3417 298.234 37.198 297.861 37.7403C297.595 38.1399 297.195 38.2256 296.769 38.2256C296.609 38.2256 295.944 38.2541 295.837 38.1114C295.544 37.6547 294.852 38.0828 295.145 38.5395C295.464 39.0533 296.13 39.0819 296.663 39.0819C297.302 39.1104 297.914 38.9391 298.367 38.4254C299.219 37.4263 298.926 35.7423 297.914 35.0002C296.822 34.2295 295.304 34.6576 294.745 35.9135C294.266 37.0267 294.612 38.7108 295.944 38.7393C296.476 38.7964 296.476 37.9401 295.944 37.9116V37.9116Z" fill="#E8E8E8"/>
<path d="M132.966 104.96C134.217 106.044 135.762 105.588 136.934 104.532C138.585 103.076 139.41 100.593 139.73 98.3948C140.555 92.8003 138.452 87.4913 137.626 82.0681C136.135 71.9923 140.236 61.2029 147.852 55.1517C151.554 52.1832 157.652 49.0149 156.214 42.9352C156.081 42.3929 155.309 42.6212 155.442 43.1635C156.8 48.9578 150.515 51.8978 147.08 54.695C143.991 57.2354 141.488 60.5179 139.703 64.2C137.946 67.7679 136.88 71.7354 136.588 75.76C136.241 80.6409 137.44 85.1793 138.425 89.8889C139.011 92.7433 139.384 95.7403 138.878 98.6517C138.638 99.9932 138.212 101.306 137.546 102.477C136.801 103.732 135.016 105.673 133.525 104.389C133.152 104.018 132.566 104.617 132.966 104.96V104.96Z" fill="#E8E8E8"/>
<path d="M155.921 42.5927C152.912 42.7354 150.276 40.2236 150.435 36.9126C150.595 33.4588 154.403 30.262 157.626 31.1754C160.502 32.0031 162.712 35.3998 161.993 38.5681C161.274 41.7364 157.945 42.4214 155.389 42.8781C154.883 42.9637 155.096 43.7915 155.602 43.7059C158.904 43.135 162.739 41.8791 162.952 37.5976C163.111 34.1153 160.209 30.3476 156.88 30.2049C153.365 30.0336 149.823 33.1163 149.636 36.9411C149.477 40.7088 152.486 43.6202 155.921 43.4775C156.427 43.4204 156.427 42.5641 155.921 42.5927V42.5927Z" fill="#E8E8E8"/>
<path d="M151.98 40.3663C153.258 36.9126 160.076 36.3417 160.874 40.4519C160.981 40.9942 161.753 40.7659 161.647 40.2236C160.661 35.2 152.752 35.9421 151.208 40.1379C151.021 40.6517 151.793 40.8515 151.98 40.3663V40.3663Z" fill="#E8E8E8"/>
<path d="M155.974 36.513C155.415 36.0848 155.202 35.2571 155.575 34.6291C156.001 33.8584 156.907 33.7728 157.599 34.1724C158.132 34.4864 158.238 35.2 157.918 35.7423C157.519 36.3988 156.667 36.4844 156.001 36.3132C155.495 36.199 155.282 37.0267 155.788 37.1409C156.853 37.3978 158.132 37.1409 158.664 36.0277C159.143 35.0287 158.797 33.8299 157.839 33.3447C156.773 32.8309 155.495 33.0592 154.883 34.1724C154.27 35.2285 154.67 36.5415 155.575 37.2265C156.001 37.5976 156.401 36.8555 155.974 36.513V36.513Z" fill="#E8E8E8"/>
<path d="M167.266 27.7216C170.062 19.7866 178.104 15.7334 185.587 15.1911C190.541 14.8201 195.494 15.6478 200.341 16.6468C204.921 17.6173 209.688 19.1586 214.375 18.9874C218.236 18.8447 222.204 17.1321 224.015 13.2787C224.255 12.7935 223.562 12.3653 223.323 12.8506C221.219 17.3033 216.372 18.4451 212.085 18.074C207.078 17.6458 202.151 16.0474 197.225 15.1626C189.236 13.7354 180.714 13.5356 173.604 18.3594C170.381 20.5573 167.825 23.6399 166.467 27.4933C166.307 28.0071 167.079 28.2354 167.266 27.7216V27.7216Z" fill="#E8E8E8"/>
<path d="M227.237 12.7935C234.268 12.7935 241.325 12.7935 248.355 12.7935C248.861 12.7935 248.861 11.9372 248.355 11.9372C241.325 11.9372 234.268 11.9372 227.237 11.9372C226.705 11.9372 226.705 12.7935 227.237 12.7935V12.7935Z" fill="#E8E8E8"/>
<path d="M226.944 11.8801C225.693 10.5671 227.051 8.34072 228.036 7.34171C229.235 6.0858 230.886 5.60057 232.483 6.28561C232.617 6.34269 232.883 6.25706 232.936 6.0858C233.895 3.68817 236.158 1.94703 238.635 2.0612C241.218 2.17537 243.402 4.25903 244.041 6.88502C244.094 7.14191 244.414 7.28462 244.627 7.14191C245.799 6.37124 246.997 7.28462 247.476 8.4549C247.902 9.53954 247.796 10.7669 247.689 11.9372C247.636 12.4795 248.435 12.4795 248.488 11.9372C248.648 10.2246 248.755 8.19801 247.476 6.88502C246.571 5.97163 245.319 5.6862 244.254 6.39978C244.44 6.48541 244.654 6.57104 244.84 6.65667C244.121 3.80234 241.831 1.51888 239.035 1.23344C236.158 0.919469 233.389 2.83187 232.27 5.65765C232.43 5.60057 232.563 5.51494 232.723 5.45785C230.593 4.54447 228.356 5.51494 226.971 7.3988C225.932 8.79742 225.027 11.0523 226.438 12.508C226.758 12.8791 227.317 12.2797 226.944 11.8801V11.8801Z" fill="#E8E8E8"/>
<path d="M242.097 16.076C245.373 15.6764 247.29 19.3584 247.796 22.3269C248.328 25.3811 247.823 28.4352 247.53 31.4893C247.077 36.0848 247.37 41.6222 251.444 44.3053C251.87 44.5907 252.296 43.8486 251.844 43.5631C246.278 39.9096 248.595 31.7748 248.808 26.1803C248.968 21.9273 247.396 14.5917 242.097 15.2197C241.591 15.2767 241.591 16.133 242.097 16.076V16.076Z" fill="#E8E8E8"/>
<path d="M255.865 39.4815C253.468 45.9608 251.098 52.4401 248.701 58.8909C248.515 59.4047 249.287 59.633 249.474 59.1192C251.87 52.6399 254.24 46.1606 256.637 39.7098C256.824 39.196 256.051 38.9962 255.865 39.4815V39.4815Z" fill="#E8E8E8"/>
<path d="M256.238 40.0238C260.392 39.7954 264.52 39.9096 268.647 40.4234C268.514 40.2521 268.381 40.0523 268.275 39.8811C266.304 46.6458 264.706 53.4962 263.428 60.4322C263.321 60.9746 264.094 61.2029 264.2 60.6606C265.478 53.7246 267.103 46.8742 269.047 40.1094C269.127 39.824 268.914 39.5956 268.674 39.5671C264.546 39.0533 260.419 38.9391 256.264 39.1675C255.732 39.196 255.732 40.0523 256.238 40.0238V40.0238Z" fill="#E8E8E8"/>
<path d="M248.888 59.7186C251.338 59.8328 253.761 59.9755 256.211 60.1468C258.581 60.2895 261.111 60.2324 263.348 61.2029C263.827 61.4027 264.04 60.5749 263.561 60.3751C261.431 59.4332 259.007 59.4903 256.744 59.3476C254.134 59.1763 251.524 59.0336 248.888 58.8909C248.382 58.8338 248.382 59.6901 248.888 59.7186V59.7186Z" fill="#E8E8E8"/>
<path d="M256.611 42.8781C259.167 42.9352 261.724 43.135 264.253 43.5061C264.759 43.5917 264.972 42.7639 264.466 42.6783C261.857 42.2787 259.247 42.0504 256.611 41.9933C256.078 41.9933 256.078 42.8496 256.611 42.8781V42.8781Z" fill="#E8E8E8"/>
<path d="M255.838 44.8191C257.276 44.762 258.714 44.7905 260.152 44.9332C260.658 44.9903 260.658 44.134 260.152 44.0769C258.714 43.9342 257.276 43.8771 255.838 43.9628C255.332 43.9913 255.332 44.8476 255.838 44.8191V44.8191Z" fill="#E8E8E8"/>
<path d="M254.081 48.6724C257.143 48.4726 260.046 48.1872 263.055 48.9864C263.561 49.1291 263.774 48.3013 263.268 48.1586C260.179 47.3594 257.223 47.6163 254.081 47.8161C253.548 47.8446 253.548 48.7009 254.081 48.6724V48.6724Z" fill="#E8E8E8"/>
<path d="M254.214 51.1842C255.971 51.0415 257.729 51.0415 259.487 51.2127C259.993 51.2698 259.993 50.4135 259.487 50.3564C257.729 50.1852 255.971 50.1852 254.214 50.3279C253.708 50.385 253.681 51.2413 254.214 51.1842V51.1842Z" fill="#E8E8E8"/>
<path d="M252.829 54.4952C255.226 54.324 257.569 54.4096 259.939 54.7521C260.445 54.8378 260.445 53.9815 259.939 53.8958C257.569 53.5533 255.199 53.4677 252.829 53.6389C252.323 53.6675 252.323 54.5238 252.829 54.4952V54.4952Z" fill="#E8E8E8"/>
<path d="M120.316 16.1901C121.382 17.7315 122.926 18.3594 124.497 19.1301C126.361 20.0435 128.066 21.2708 129.451 22.8978C132.593 26.5228 133.632 31.4037 133.711 36.2275C133.898 45.2757 131.048 54.7521 134.883 63.3151C135.096 63.8003 135.789 63.3722 135.576 62.8869C131.554 53.8673 135.123 43.7629 134.43 34.2866C134.138 30.1763 133.046 26.1517 130.569 22.9549C129.397 21.4421 127.959 20.1291 126.361 19.1586C124.577 18.074 122.26 17.5887 121.009 15.762C120.716 15.3338 120.023 15.762 120.316 16.1901V16.1901Z" fill="#E8E8E8"/>
<path d="M111.209 4.11631C110.516 3.17438 110.57 2.51789 111.369 2.14682C111.715 1.94702 112.061 1.8043 112.46 1.71867C112.966 1.6045 113.526 1.57596 114.058 1.6045C115.656 1.69013 117.281 2.14682 117.201 4.23048C117.121 6.68521 116.695 9.11139 116.135 11.4805C115.55 13.9067 114.831 16.2758 114.058 18.6448C113.898 19.1586 113.765 19.758 113.526 20.2433C113.046 21.1281 112.301 21.0996 111.502 21.0996C110.516 21.0996 109.265 21.2423 108.306 20.9569C107.241 20.6429 107.001 19.5011 108.04 18.759C108.519 18.4165 109.185 18.3594 109.744 18.3594C110.463 18.3594 111.102 18.5307 111.715 18.0169C112.887 17.0464 113.073 14.4204 113.339 13.0218C113.739 10.9952 114.404 8.51198 114.271 6.45686C114.165 4.88698 112.727 4.82989 111.688 4.1734C111.235 3.88796 110.836 4.63009 111.289 4.91552C112.114 5.4293 113.313 5.48639 113.472 6.65666C113.659 8.02674 113.126 9.88205 112.887 11.2521C112.647 12.5651 112.381 13.8781 112.061 15.1626C111.821 16.133 111.715 17.3033 110.516 17.5602C110.037 17.6744 109.451 17.5031 108.945 17.5887C107.667 17.7885 106.415 18.759 106.602 20.3004C106.841 22.2413 108.999 21.8988 110.33 21.9559C111.981 22.013 113.632 22.2698 114.378 20.386C115.31 18.0454 115.976 15.4765 116.615 13.0504C117.281 10.5386 117.787 7.94111 117.973 5.34367C118.133 3.3171 118.213 1.69013 116.109 1.14781C114.271 0.662572 111.741 0.434226 110.303 2.03265C109.345 3.08875 109.584 5.17241 111.235 5.0297C111.715 4.91552 111.715 4.05922 111.209 4.11631V4.11631Z" fill="#E8E8E8"/>
<path d="M107.987 7.17046C107.96 7.14191 107.933 7.11337 107.907 7.08483C107.8 6.97065 107.64 6.94211 107.507 6.97065C106.735 7.25609 106.442 8.59762 106.229 9.33975C105.856 10.7098 105.776 12.1084 105.963 13.5356C106.016 14.0779 106.815 14.0779 106.762 13.5356C106.655 12.5366 106.628 11.5661 106.788 10.5671C106.868 10.0533 107.694 8.0553 107.401 7.76986C107.774 8.16947 108.333 7.57006 107.987 7.17046V7.17046Z" fill="#E8E8E8"/>
<path d="M105.297 4.03068C102.847 7.37024 101.276 11.3948 102.314 15.6763C102.447 16.2187 103.22 15.9903 103.087 15.448C102.128 11.509 103.619 7.71276 105.856 4.63009C106.176 4.20194 105.616 3.60253 105.297 4.03068V4.03068Z" fill="#E8E8E8"/>
<path d="M101.941 0.177345C97.867 5.91455 95.9496 13.1645 96.642 20.3575C96.6953 20.8998 97.4942 20.8998 97.4409 20.3575C96.7752 13.3073 98.6127 6.25707 102.634 0.605495C102.927 0.177345 102.234 -0.250804 101.941 0.177345V0.177345Z" fill="#E8E8E8"/>
<path d="M96.2692 29.3486C94.2187 30.4047 92.3013 31.8604 90.7833 33.6872C89.2388 35.571 88.7594 37.5976 88.5198 40.0523C87.9872 45.6753 86.0431 51.8407 80.7703 54.2098C80.291 54.4096 80.504 55.2373 80.9834 55.0375C85.191 53.1537 87.641 48.8722 88.6795 44.2482C89.292 41.4795 88.9991 38.197 90.3573 35.7137C91.742 33.1734 94.2453 31.3181 96.6687 30.0622C97.148 29.8624 96.7485 29.1202 96.2692 29.3486V29.3486Z" fill="#E8E8E8"/>
<path d="M69.5057 69.3663C67.7481 69.4234 65.7508 68.6242 65.1117 66.6832C64.3661 64.3997 65.9639 62.1734 67.6682 61.0031C70.9704 58.7196 75.4177 57.8348 79.2524 57.7777C81.1964 57.7492 83.4068 57.7777 85.1111 58.8909C87.2948 60.3181 87.6676 63.0011 85.9633 65.0277C83.3801 68.1104 78.9329 68.4243 75.3644 68.7098C74.8584 68.7383 74.8584 69.5946 75.3644 69.5661C78.9329 69.2806 82.9274 68.9381 85.8035 66.3692C88.4399 64.0287 88.6263 60.1468 85.5372 58.1202C82.3415 56.0366 77.4682 56.7216 74.0062 57.5208C70.6775 58.2915 66.1237 59.6901 64.6324 63.3722C63.0878 67.1399 66.0438 70.2797 69.559 70.1655C70.0383 70.194 70.0383 69.3377 69.5057 69.3663V69.3663Z" fill="#E8E8E8"/>
<path d="M69.3726 69.7088C68.7068 70.8505 68.0677 71.9923 67.4019 73.1055C67.1889 73.4765 67.615 73.8761 67.9611 73.7049C69.5856 72.7629 71.3432 72.1635 72.9943 71.3358C73.8997 70.9076 74.7785 70.3938 75.6307 69.823C75.9236 69.6232 76.2698 69.509 76.3497 69.1094C76.403 68.9096 76.2964 68.6242 76.0834 68.5956C76.0568 68.5956 76.0301 68.5956 76.0035 68.5671C75.8171 68.5385 75.5508 68.6242 75.5242 68.8525C75.5242 68.881 75.5242 68.881 75.5242 68.9096C75.4176 69.4519 76.1899 69.6803 76.2964 69.1379C76.2964 69.1094 76.2964 69.1094 76.2964 69.0809C76.1367 69.1665 75.9769 69.2807 75.8171 69.3663C75.8437 69.3663 75.8704 69.3663 75.897 69.3948C75.8171 69.2236 75.7106 69.0523 75.6307 68.881C75.5508 69.1665 74.0595 69.823 73.7399 70.0228C72.941 70.4795 72.1155 70.8505 71.2633 71.2216C70.0117 71.7639 68.7867 72.2777 67.615 72.9627C67.8014 73.1625 67.9878 73.3623 68.1742 73.5621C68.84 72.4204 69.4791 71.2787 70.1448 70.1655C70.3313 69.6803 69.6389 69.2521 69.3726 69.7088V69.7088Z" fill="#E8E8E8"/>
<path d="M70.2514 64.7708C70.2247 64.7137 70.2247 64.5996 70.3046 64.5996C70.5177 64.5996 70.278 64.885 70.2514 64.9135C70.1182 64.9992 69.6655 65.1133 69.6921 64.8279C69.7188 64.4854 70.3312 64.1143 70.4378 64.6281C70.4644 64.7708 70.3579 64.9421 70.2247 64.9706C70.1448 64.9992 70.0916 64.9992 70.0383 64.9421C70.0117 64.9135 69.9584 64.885 70.0117 64.885C70.5177 64.9135 70.5177 64.0572 70.0117 64.0287C69.4791 63.9716 69.0796 64.571 69.2128 65.1133C69.3459 65.6557 69.9318 65.9411 70.4111 65.7984C70.8905 65.6557 71.2633 65.199 71.2633 64.6566C71.2633 64.1143 70.8639 63.6576 70.4111 63.5435C69.4258 63.2866 68.3872 64.8279 69.2394 65.5986C69.9318 66.2265 71.3166 65.6557 71.2367 64.5996C71.1834 64.0287 70.5976 63.572 70.0649 63.7718C69.5323 63.9716 69.3193 64.6852 69.5856 65.199C69.7986 65.6842 70.491 65.2561 70.2514 64.7708V64.7708Z" fill="#E8E8E8"/>
<path d="M76.1367 64.0001C76.11 63.8289 76.0301 63.6005 76.1899 63.4578C76.2698 63.3722 76.403 63.3722 76.5095 63.3722C76.7758 63.4293 76.7225 63.7433 76.5361 63.886C76.4296 63.9716 76.3231 63.9716 76.2432 63.8574C76.1633 63.7433 76.1899 63.7147 76.2698 63.6576C76.3231 63.6291 76.1633 63.6576 76.2964 63.6291C76.616 63.572 76.0834 63.9716 76.1633 63.6862C76.0035 64.2285 76.7758 64.4283 76.9356 63.9145C77.0687 63.4007 76.616 62.887 76.1367 62.9726C75.5774 63.0868 75.4443 63.8003 75.7905 64.2285C76.11 64.6281 76.6959 64.5425 76.9356 64.0858C77.1752 63.6291 77.0155 63.0297 76.5361 62.8584C76.0568 62.6871 75.5242 63.0011 75.4176 63.5149C75.2845 64.0858 75.6573 64.6566 76.1899 64.7994C77.1486 65.0277 77.9475 63.6291 77.2551 62.8584C76.9089 62.4873 76.3497 62.4588 75.9236 62.6586C75.3378 62.9726 75.3111 63.6291 75.4176 64.2285C75.4443 64.7708 76.2166 64.5425 76.1367 64.0001V64.0001Z" fill="#E8E8E8"/>
<path d="M82.0486 62.0877C82.1551 62.0877 82.2617 62.1163 82.3948 62.1163V62.0877C82.4214 62.0592 82.4214 62.0021 82.4481 61.9736C82.4747 61.9165 82.5546 61.8594 82.6078 61.8309C82.741 61.7738 82.8742 61.7738 82.954 61.9165C83.0606 62.1448 82.8742 62.573 82.6078 62.4017C82.4481 62.2875 82.4214 62.0021 82.6611 62.0592C82.7144 62.0592 82.741 62.0877 82.7676 62.1163C82.7676 62.1163 82.7676 62.1734 82.7676 62.1163C82.7676 62.0592 82.7676 62.1448 82.741 62.1448C82.6611 62.2019 82.6345 62.259 82.5546 62.2019C82.3682 62.0592 82.1019 62.1734 81.9953 62.3446C81.8888 62.573 81.9687 62.8013 82.1285 62.944C82.9008 63.5435 83.9394 62.3446 83.3269 61.5454C82.7676 60.8318 81.5693 61.2885 81.6225 62.2305C81.6492 62.7157 81.9953 63.1438 82.4214 63.258C82.8475 63.3722 83.3002 63.1438 83.5399 62.7442C84.0725 61.8594 83.3269 60.632 82.3415 60.9746C81.8888 61.1458 81.4894 61.6311 81.5426 62.1734C81.5959 62.7728 82.3948 63.0868 82.6877 62.4873C82.954 62.0307 82.2883 61.6025 82.0486 62.0877V62.0877Z" fill="#E8E8E8"/>
<path d="M98.1333 37.198C101.409 35.257 104.258 32.6881 106.628 29.5769C106.948 29.1488 106.389 28.5494 106.069 28.9775C103.752 32.0316 100.956 34.5435 97.7339 36.4559C97.2812 36.7127 97.6806 37.4549 98.1333 37.198V37.198Z" fill="#E8E8E8"/>
<path d="M137.972 37.9401C137.386 41.5366 137.147 45.1616 137.307 48.8151C137.333 49.3574 138.132 49.3574 138.105 48.8151C137.946 45.2472 138.159 41.6793 138.745 38.1685C138.825 37.6261 138.052 37.3978 137.972 37.9401V37.9401Z" fill="#E8E8E8"/>
<path d="M133.898 121.372C133.898 117.005 135.815 112.866 139.091 110.24C139.49 109.926 139.091 109.184 138.691 109.498C135.176 112.295 133.126 116.663 133.126 121.372C133.099 121.914 133.898 121.914 133.898 121.372V121.372Z" fill="#E8E8E8"/>
<path d="M178.504 236.63C178.93 240.74 179.596 245.25 180.661 250.131C182.099 256.724 183.936 262.49 185.774 267.343C185.268 267.828 183.75 269.112 181.513 269.283C180.102 269.398 178.983 269.027 178.344 268.77C177.385 265.202 176.453 261.491 175.601 257.638C173.843 249.703 172.565 242.139 171.633 235.089C173.95 235.602 176.24 236.116 178.504 236.63Z" fill="#AEAEAE"/>
<path d="M238.289 233.947C237.943 238.029 237.357 242.567 236.371 247.448C234.987 254.355 233.149 260.349 231.285 265.402C231.551 265.659 233.069 267.2 235.413 267.086C237.437 267 238.742 265.716 239.061 265.402C239.674 261.948 240.26 258.466 240.845 254.983C242.124 247.362 243.269 239.855 244.361 232.434C242.337 232.919 240.313 233.433 238.289 233.947Z" fill="#AEAEAE"/>
<path d="M190.674 222.558C191.286 226.925 192.005 231.435 192.831 236.059C194.029 242.767 195.387 249.16 196.825 255.212C196.213 255.611 194.988 256.268 193.31 256.382C191.899 256.468 190.78 256.125 190.141 255.868C189.342 251.815 188.57 247.705 187.798 243.595C186.386 235.973 185.081 228.467 183.83 221.045C186.12 221.531 188.384 222.044 190.674 222.558Z" fill="#AEAEAE"/>
<path d="M228.249 221.702C227.53 226.012 226.891 230.522 226.332 235.203C225.56 241.654 225.027 247.819 224.707 253.699C225.16 254.013 226.225 254.669 227.743 254.755C229.368 254.812 230.566 254.127 231.019 253.842C230.752 250.473 230.646 246.734 230.806 242.738C231.125 233.861 232.643 226.212 234.321 220.189C232.297 220.674 230.273 221.188 228.249 221.702Z" fill="#AEAEAE"/>
<path d="M275.571 126.196C280.232 135.101 276.637 144.949 267.902 169.411C263.694 181.17 255.998 202.778 245.133 233.576C234.454 237.743 216.772 242.881 194.908 241.254C182.205 240.312 171.553 237.372 163.484 234.347C162.286 232.035 158.132 223.386 161.247 214.994C162.978 210.342 166.467 207.002 173.87 203.063C181.167 199.181 194.029 193.729 212.724 192.73C205.4 153.655 217.943 121.629 237.463 114.236C250.273 109.413 269.153 113.951 275.571 126.196Z" fill="white" stroke="#AEAEAE" stroke-width="2"/>
<path d="M273.867 129.421C266.144 139.897 264.387 153.969 261.431 166.556C258.262 180.029 254.613 193.473 249.154 206.117C246.145 213.053 242.603 219.732 238.369 225.898C238.076 226.354 238.768 226.783 239.061 226.326C246.491 215.479 251.737 203.177 255.785 190.504C259.886 177.602 262.602 164.301 265.798 151.143C267.609 143.664 269.926 136.186 274.453 130.049C274.746 129.593 274.187 128.993 273.867 129.421V129.421Z" fill="#AEAEAE"/>
<path d="M163.644 228.153C181.406 235.146 200.767 237.201 219.461 234.09C224.814 233.205 230.113 231.892 235.306 230.179C235.786 230.008 235.599 229.18 235.093 229.351C216.985 235.346 197.544 236.259 179.01 232.035C173.87 230.864 168.784 229.266 163.857 227.325C163.378 227.125 163.165 227.953 163.644 228.153V228.153Z" fill="#AEAEAE"/>
<path d="M226.172 205.718C230.646 207.287 234.454 210.456 237.011 214.737C237.277 215.194 237.969 214.766 237.703 214.309C235.04 209.856 231.072 206.545 226.385 204.89C225.879 204.719 225.666 205.546 226.172 205.718V205.718Z" fill="#AEAEAE"/>
<path d="M146.068 242.681C148.198 246.106 150.329 249.56 152.433 252.985C138.798 266.115 137.04 269.854 138.052 270.768C140.076 272.566 154.59 264.574 156.081 263.746C161.487 260.778 165.561 257.895 168.278 255.84C167.319 253.042 166.041 249.903 164.283 246.592C161.966 242.224 159.41 238.542 156.986 235.545C153.338 237.886 149.69 240.284 146.068 242.681Z" fill="#7F7F7F"/>
<path d="M225.746 175.405C226.705 177.631 227.717 180.799 227.876 184.624C228.116 190.39 226.358 194.985 225.027 197.64C224.308 198.639 223.03 200.294 221.139 202.093C221.139 202.093 216.851 206.146 210.034 209.257C203.084 212.454 182.871 216.307 155.415 217.049C156.214 220.703 157.652 225.184 160.209 230.008C161.62 232.662 163.165 235.003 164.683 237.03C163.671 238.457 160.795 242.082 155.069 244.365C149.557 246.563 144.497 246.306 142.499 246.135C139.623 243.309 136.667 239.941 133.925 235.916C125.856 224.014 123.965 212.511 123.619 205.118C125.616 203.577 128.545 201.465 132.38 199.21C140.369 194.5 147.692 191.931 153.711 190.019C164.07 186.765 173.977 184.51 196.772 180.371C203.909 179.087 213.789 177.317 225.746 175.405Z" fill="white" stroke="#191919" stroke-width="2"/>
<path opacity="0.19" d="M200.447 180.314C199.675 185.766 197.491 192.845 190.727 197.24C184.149 201.522 178.637 199.781 165.455 203.206C155.974 205.661 143.432 208.914 139.943 216.136C136.295 223.728 143.192 234.432 155.255 243.223C156.267 243.081 157.546 242.795 158.904 242.224C162.392 240.74 164.097 238.314 164.736 237.258C163.191 235.26 161.593 232.948 160.129 230.293C157.359 225.327 155.868 220.703 155.016 216.964C169.13 216.336 180.98 215.023 189.981 213.767C200.82 212.254 208.33 210.741 215.493 206.403C221.485 202.778 223.882 199.21 224.734 197.84C227.317 193.644 227.53 189.819 227.637 187.678C227.903 182.455 226.305 178.202 224.974 175.519C216.798 177.117 208.623 178.716 200.447 180.314Z" fill="#6C6D6D"/>
<path opacity="0.19" d="M225.24 176.118C224.707 181.427 222.817 189.819 215.28 196.441C210.647 200.523 205.667 202.349 186.12 208.001C177.492 210.484 167.053 213.424 155.176 216.621C170.275 216.45 182.552 215.108 191.366 213.824C200.5 212.482 204.974 211.312 209.608 209.171C214.002 207.145 222.87 203.035 226.492 194.386C229.98 185.994 226.465 178.459 225.24 176.118Z" fill="#6C6D6D"/>
<path opacity="0.22" d="M155.255 217.049C155.149 220.817 155.309 225.127 155.974 229.865C156.614 234.546 157.652 238.742 158.771 242.396C159.676 241.825 160.715 241.054 161.727 240.112C162.952 238.971 163.857 237.886 164.523 236.944C162.978 234.775 161.407 232.263 159.942 229.437C157.572 224.87 156.161 220.646 155.255 217.049Z" fill="#6C6D6D"/>
<path d="M154.03 259.065C156.081 263.375 158.105 267.685 160.155 272.024C147.053 288.522 145.349 293.203 146.334 294.344C148.278 296.628 162.233 286.552 163.671 285.525C168.864 281.785 172.805 278.16 175.415 275.592C174.483 272.081 173.258 268.142 171.553 263.946C169.343 258.466 166.866 253.842 164.549 250.045C161.034 253.071 157.519 256.068 154.03 259.065Z" fill="#7F7F7F"/>
<path d="M230.619 174.52C231.551 177.346 232.51 181.285 232.67 186.108C232.91 193.358 231.205 199.124 229.927 202.464C229.235 203.72 228.01 205.803 226.199 208.087C226.199 208.087 222.098 213.196 215.547 217.106C208.862 221.102 189.422 225.983 163.058 226.897C163.83 231.492 165.189 237.115 167.665 243.166C169.023 246.506 170.515 249.446 171.979 251.986C171.021 253.784 168.251 258.323 162.739 261.206C157.439 263.974 152.592 263.66 150.648 263.404C147.879 259.864 145.029 255.611 142.42 250.559C134.644 235.602 132.833 221.131 132.513 211.854C134.43 209.942 137.253 207.259 140.928 204.433C148.624 198.525 155.628 195.271 161.434 192.873C171.367 188.791 180.927 185.966 202.844 180.742C209.608 179.115 219.142 176.917 230.619 174.52Z" fill="white" stroke="#736663" stroke-width="2"/>
<path opacity="0.19" d="M206.306 180.685C205.56 187.536 203.456 196.412 196.959 201.95C190.647 207.345 185.321 205.147 172.672 209.457C163.564 212.539 151.501 216.65 148.145 225.726C144.63 235.26 151.261 248.732 162.845 259.75C163.83 259.579 165.055 259.208 166.36 258.494C169.716 256.639 171.34 253.585 171.953 252.243C170.461 249.731 168.917 246.82 167.505 243.48C164.842 237.229 163.404 231.435 162.605 226.725C176.187 225.926 187.558 224.299 196.24 222.729C206.679 220.846 213.869 218.933 220.766 213.481C226.518 208.914 228.835 204.433 229.634 202.721C232.111 197.44 232.324 192.645 232.43 189.962C232.67 183.397 231.152 178.059 229.874 174.691C222.018 176.661 214.162 178.659 206.306 180.685Z" fill="#6C6D6D"/>
<path opacity="0.19" d="M230.113 175.405C229.607 182.055 227.797 192.616 220.553 200.951C216.079 206.089 211.312 208.372 192.538 215.479C184.229 218.619 174.216 222.301 162.792 226.326C177.305 226.097 189.129 224.442 197.598 222.815C206.386 221.131 210.7 219.675 215.12 216.992C219.355 214.423 227.85 209.286 231.365 198.382C234.694 187.821 231.312 178.373 230.113 175.405Z" fill="#6C6D6D"/>
<path opacity="0.22" d="M162.872 226.868C162.765 231.606 162.925 237.03 163.564 242.967C164.203 248.875 165.162 254.127 166.254 258.694C167.133 257.952 168.118 257.01 169.103 255.811C170.275 254.384 171.154 253.014 171.793 251.844C170.302 249.103 168.784 245.964 167.399 242.396C165.109 236.687 163.724 231.349 162.872 226.868Z" fill="#6C6D6D"/>
<path d="M152.513 130.164C152.007 129.907 150.995 129.421 151.021 128.879C151.074 127.994 153.817 127.395 155.868 127.423C157.253 127.423 159.809 127.737 162.792 129.964C159.996 130.906 155.868 131.762 152.513 130.164Z" fill="white" stroke="#191919" stroke-width="2"/>
<path d="M216.558 93.1429C211.499 92.4293 206.945 100.564 206.519 101.306C204.974 104.132 204.788 106.016 203.723 111.182C201.14 123.77 199.755 130.164 195.92 134.017C192.458 137.471 188.41 138.298 187.345 138.47C182.791 139.24 178.664 137.414 170.621 133.731C163.83 130.62 163.005 129.478 159.303 129.022C157.412 128.793 151.9 128.137 148.252 131.933C145.908 134.359 144.87 138.241 145.722 139.04C146.814 140.068 151.288 136.443 151.341 136.529C151.367 136.586 150.009 137.271 148.891 138.755C148.332 139.469 147.373 141.01 147.719 141.41C148.332 142.209 152.086 137.356 156.214 138.213C159.037 138.784 159.57 141.524 162.845 142.038C164.762 142.351 166.44 141.724 167.505 141.181C169.37 143.351 172.405 146.433 176.799 148.945C179.409 150.429 188.623 155.538 199.888 152.57C211.845 149.43 217.863 139.412 219.754 136.272C220.819 134.474 228.649 121.058 224.867 106.016C224.201 103.59 221.778 93.885 216.558 93.1429Z" fill="white" stroke="#191919" stroke-width="2"/>
<path opacity="0.25" d="M216.026 93.2283C214.295 94.1988 217.65 100.935 217.224 110.583C216.825 119.859 213.123 126.71 211.472 129.849C209.235 134.045 206.279 139.526 200.394 143.093C192.485 147.889 182.685 147.175 175.708 143.921C173.63 142.951 171.527 139.811 166.946 137.899C164.949 137.071 163.378 136.728 161.54 136.329C157.04 135.387 153.045 134.53 149.343 136.528C147.586 137.499 146.121 138.983 146.228 139.183C146.334 139.383 148.385 138.27 150.196 137.214C148.012 140.325 147.666 141.21 147.826 141.381C148.012 141.552 148.678 140.896 150.382 139.868C152.22 138.783 153.551 138.013 155.176 138.155C156.001 138.241 156.64 138.527 157.013 138.698C158.478 139.383 158.824 140.182 160.289 140.981C161.194 141.466 161.94 141.666 162.339 141.752C163.191 141.952 164.949 142.209 167.266 141.324C169.29 143.607 178.584 153.712 192.192 153.512C199.195 153.398 204.335 150.6 206.359 149.487C217.464 143.293 221.885 132.304 223.003 129.278C226.465 119.916 227.69 106.044 221.352 97.3385C219.834 95.2263 217.224 92.5718 216.026 93.2283Z" fill="#6C6D6D"/>
<path d="M146.201 139.04C147.24 137.385 148.598 136.072 150.222 135.13C150.568 134.93 150.249 134.388 149.929 134.588C148.225 135.587 146.787 136.985 145.695 138.726C145.455 139.069 145.988 139.383 146.201 139.04V139.04Z" fill="#191919"/>
<path d="M146.521 135.358C147.559 133.617 149.237 132.704 150.915 131.819C151.261 131.648 150.968 131.077 150.622 131.277C148.838 132.19 147.08 133.189 145.988 135.044C145.802 135.387 146.308 135.701 146.521 135.358V135.358Z" fill="#191919"/>
<path opacity="0.29" d="M223.669 103.504C223.269 106.387 222.55 110.554 221.272 115.464C218.769 125.168 216.505 133.903 210.593 140.839C203.27 149.402 193.337 151.742 187.638 152.456C191.872 153.512 195.201 153.312 197.305 152.998C213.283 150.601 221.911 132.19 224.255 124.141C224.654 122.714 225.506 119.774 225.613 115.749C225.799 110.383 224.574 106.073 223.669 103.504Z" fill="#6C6D6D"/>
<path opacity="0.26" d="M156.747 137.87C158.265 138.669 160.342 139.554 162.898 140.068C164.922 140.468 166.733 140.553 168.171 140.496C164.523 142.58 162.632 142.323 161.567 141.638C160.901 141.21 160.155 140.353 158.105 138.841C157.546 138.413 157.066 138.07 156.747 137.87Z" fill="#6C6D6D"/>
<path d="M102.9 184.795C102.9 198.496 102.9 212.225 102.9 225.926C102.9 227.582 105.297 227.582 105.297 225.926C105.297 212.225 105.297 198.496 105.297 184.795C105.297 183.168 102.9 183.14 102.9 184.795V184.795Z" fill="#E4E4E4"/>
<path d="M146.467 184.253C146.467 186.451 146.467 188.649 146.467 190.847C146.467 192.502 148.864 192.502 148.864 190.847C148.864 188.649 148.864 186.451 148.864 184.253C148.864 182.598 146.467 182.598 146.467 184.253V184.253Z" fill="#E4E4E4"/>
<path d="M69.8253 183.111C82.741 170.067 95.6567 156.994 108.599 143.95C129.504 144.349 150.382 144.749 171.287 145.149C167.878 157.822 164.47 170.467 161.061 183.14C130.649 183.111 100.237 183.111 69.8253 183.111Z" fill="white" stroke="#EFEFEF" stroke-width="2"/>
<path d="M70.5975 184.596C93.9524 184.596 117.281 184.596 140.635 184.596C147.186 184.596 153.711 184.596 160.262 184.596C161.806 184.596 161.806 182.027 160.262 182.027C136.907 182.027 113.579 182.027 90.2241 182.027C83.673 182.027 77.1486 182.027 70.5975 182.027C69.053 182.027 69.053 184.596 70.5975 184.596V184.596Z" fill="#E4E4E4"/>
<path d="M77.4416 184.167C77.4416 212.568 77.4416 240.969 77.4416 269.341C77.4416 277.304 77.4416 285.239 77.4416 293.203C77.4416 294.858 79.8383 294.858 79.8383 293.203C79.8383 264.802 79.8383 236.402 79.8383 208.03C79.8383 200.066 79.8383 192.131 79.8383 184.167C79.8383 182.512 77.4416 182.512 77.4416 184.167V184.167Z" fill="#E4E4E4"/>
<path d="M150.489 184.167C150.489 212.568 150.489 240.969 150.489 269.341C150.489 277.304 150.489 285.239 150.489 293.203C150.489 294.858 152.885 294.858 152.885 293.203C152.885 264.802 152.885 236.402 152.885 208.03C152.885 200.066 152.885 192.131 152.885 184.167C152.885 182.512 150.489 182.512 150.489 184.167V184.167Z" fill="#E4E4E4"/>
<path d="M78.6399 237.172C97.4409 237.172 116.242 237.172 135.043 237.172C140.369 237.172 145.695 237.172 151.021 237.172C152.566 237.172 152.566 234.603 151.021 234.603C132.22 234.603 113.419 234.603 94.6181 234.603C89.2921 234.603 83.966 234.603 78.6399 234.603C77.0954 234.603 77.0954 237.172 78.6399 237.172V237.172Z" fill="#E4E4E4"/>
<path d="M170.967 145.149C167.931 157.85 164.443 170.438 160.448 182.826C160.102 183.882 161.647 184.31 161.993 183.283C165.987 170.866 169.476 158.307 172.512 145.605C172.752 144.549 171.234 144.093 170.967 145.149V145.149Z" fill="#E4E4E4"/>
<path d="M43.4612 296C57.6019 296 71.716 296 85.8567 296C87.4013 296 87.4013 293.431 85.8567 293.431C71.716 293.431 57.6019 293.431 43.4612 293.431C41.9167 293.431 41.9167 296 43.4612 296V296Z" fill="#E4E4E4"/>
<path d="M91.7953 295.429C95.0442 295.429 98.3197 295.429 101.569 295.429C103.113 295.429 103.113 292.86 101.569 292.86C98.3197 292.86 95.0442 292.86 91.7953 292.86C90.2507 292.86 90.2507 295.429 91.7953 295.429V295.429Z" fill="#E4E4E4"/>
<path d="M134.191 295.8C146.92 295.8 159.649 295.8 172.405 295.8C173.95 295.8 173.95 293.231 172.405 293.231C159.676 293.231 146.947 293.231 134.191 293.231C132.646 293.231 132.646 295.8 134.191 295.8V295.8Z" fill="#E4E4E4"/>
<path d="M181.114 294.887C183.377 294.887 185.641 294.887 187.931 294.887C189.475 294.887 189.475 292.318 187.931 292.318C185.667 292.318 183.404 292.318 181.114 292.318C179.569 292.318 179.569 294.887 181.114 294.887V294.887Z" fill="#E4E4E4"/>
<path d="M30.6254 286.952C36.1379 286.952 41.6504 286.952 47.1362 286.952C48.6808 286.952 48.6808 284.383 47.1362 284.383C41.6237 284.383 36.1113 284.383 30.6254 284.383C29.0808 284.383 29.0808 286.952 30.6254 286.952V286.952Z" fill="#E4E4E4"/>
<path d="M147.107 177.717C130.676 177.26 114.218 176.832 97.7871 176.375C107.534 166.385 117.254 156.366 127.001 146.376C138.239 147.004 149.503 147.632 160.741 148.26C156.188 158.107 151.66 167.898 147.107 177.717Z" fill="white" stroke="#191919" stroke-width="2"/>
<path d="M126.441 146.176C116.881 156.081 107.321 166.014 97.7605 175.918C97.3344 160.048 96.8817 144.15 96.4556 128.28C106.149 121.715 115.843 115.15 125.536 108.585C125.802 121.115 126.122 133.646 126.441 146.176Z" fill="white" stroke="#191919" stroke-width="2"/>
<path d="M97.3344 129.792C98.1067 143.921 98.6127 158.079 98.879 172.236C98.879 172.522 99.2784 172.522 99.2784 172.236C99.0121 158.079 98.5062 143.921 97.7339 129.792C97.7073 129.536 97.3078 129.536 97.3344 129.792V129.792Z" fill="#191919"/>
<path d="M97.5475 129.85C106.469 123.627 115.39 117.405 124.311 111.182C124.524 111.04 124.338 110.668 124.098 110.811C115.177 117.034 106.256 123.256 97.3344 129.478C97.1214 129.65 97.3078 130.021 97.5475 129.85V129.85Z" fill="#191919"/>
<path d="M124.204 111.154C124.178 122.542 124.497 133.96 125.19 145.32C125.216 145.605 125.616 145.605 125.589 145.32C124.923 133.931 124.577 122.542 124.604 111.154C124.604 110.897 124.204 110.897 124.204 111.154V111.154Z" fill="#191919"/>
<path d="M99.1453 172.836C107.88 163.788 116.641 154.739 125.376 145.72C125.563 145.52 125.27 145.234 125.083 145.406C116.349 154.454 107.587 163.502 98.8524 172.522C98.6926 172.722 98.9589 173.036 99.1453 172.836V172.836Z" fill="#191919"/>
<path d="M139.597 167.983C141.221 165.215 142.846 162.417 144.417 159.592C144.55 159.363 144.204 159.135 144.071 159.363C142.499 162.189 140.875 164.986 139.251 167.755C139.091 167.983 139.437 168.212 139.597 167.983V167.983Z" fill="#191919"/>
<path d="M144.31 159.506C146.414 159.592 148.518 159.592 150.622 159.477C150.888 159.477 150.888 159.049 150.622 159.049C148.518 159.135 146.414 159.135 144.31 159.078C144.044 159.078 144.044 159.506 144.31 159.506V159.506Z" fill="#191919"/>
<path d="M150.355 159.363C149.157 162.161 147.932 164.958 146.707 167.755C146.601 168.012 146.947 168.212 147.053 167.983C148.278 165.186 149.503 162.389 150.702 159.592C150.808 159.306 150.462 159.106 150.355 159.363V159.363Z" fill="#191919"/>
<path d="M139.464 168.212C141.807 168.583 144.284 168.412 146.654 168.297C146.92 168.297 146.92 167.869 146.654 167.869C144.337 167.983 141.887 168.155 139.57 167.812C139.304 167.755 139.197 168.183 139.464 168.212V168.212Z" fill="#191919"/>
<path d="M148.198 159.392C147.133 162.246 145.908 165.015 144.523 167.698C144.39 167.926 144.736 168.155 144.87 167.926C146.254 165.186 147.506 162.389 148.598 159.506C148.678 159.249 148.305 159.135 148.198 159.392V159.392Z" fill="#191919"/>
<path d="M109.611 172.322C115.47 164.558 121.541 156.966 127.8 149.544C127.959 149.345 127.693 149.031 127.507 149.23C121.248 156.623 115.177 164.216 109.318 172.008C109.158 172.236 109.451 172.522 109.611 172.322V172.322Z" fill="#191919"/>
<path d="M116.695 172.807C121.941 164.958 127.48 157.365 133.285 150.001C133.445 149.801 133.179 149.487 132.992 149.687C127.16 157.08 121.621 164.701 116.348 172.579C116.189 172.807 116.535 173.036 116.695 172.807V172.807Z" fill="#191919"/>
<path d="M124.311 173.977C128.865 165.814 133.845 157.936 139.224 150.372C139.384 150.144 139.038 149.944 138.878 150.144C133.498 157.708 128.519 165.586 123.965 173.749C123.832 173.977 124.178 174.206 124.311 173.977V173.977Z" fill="#191919"/>
<path d="M130.702 174.691C135.176 165.757 140.476 157.337 146.547 149.573C146.707 149.373 146.441 149.059 146.254 149.259C140.156 157.051 134.83 165.5 130.329 174.463C130.223 174.72 130.569 174.948 130.702 174.691V174.691Z" fill="#191919"/>
<path d="M113.02 167.698C119.837 166.927 126.654 167.841 133.445 168.811C133.711 168.84 133.685 168.412 133.445 168.383C126.681 167.412 119.864 166.471 113.02 167.27C112.78 167.298 112.78 167.726 113.02 167.698V167.698Z" fill="#191919"/>
<path d="M116.455 163.531C122.9 163.274 129.344 163.787 135.682 165.1C135.922 165.158 136.028 164.729 135.789 164.701C129.424 163.388 122.926 162.874 116.455 163.131C116.215 163.102 116.215 163.531 116.455 163.531V163.531Z" fill="#191919"/>
<path d="M119.544 159.506C125.749 159.078 131.954 159.677 137.999 161.276C138.239 161.333 138.345 160.933 138.105 160.876C132.034 159.249 125.802 158.65 119.544 159.078C119.278 159.106 119.278 159.535 119.544 159.506V159.506Z" fill="#191919"/>
<path d="M122.74 155.481C128.705 155.51 134.617 156.166 140.449 157.451C140.689 157.508 140.795 157.08 140.555 157.051C134.697 155.767 128.732 155.11 122.74 155.082C122.5 155.053 122.5 155.481 122.74 155.481V155.481Z" fill="#191919"/>
<path d="M125.909 151.742C131.581 151.856 137.227 152.57 142.739 153.912C142.979 153.969 143.085 153.569 142.846 153.512C137.28 152.17 131.608 151.428 125.909 151.343C125.642 151.314 125.642 151.742 125.909 151.742V151.742Z" fill="#191919"/>
<path d="M144.177 156.081C141.567 160.191 138.984 164.301 136.375 168.412C136.241 168.64 136.588 168.868 136.721 168.64C139.33 164.53 141.914 160.419 144.523 156.309C144.683 156.052 144.337 155.852 144.177 156.081V156.081Z" fill="#191919"/>
<path d="M100.077 149.858C103.406 148.346 107.001 149.202 110.516 149.145C113.472 149.116 116.295 148.231 118.825 146.633C119.038 146.49 118.852 146.119 118.612 146.262C115.496 148.231 112.194 148.859 108.626 148.688C105.643 148.545 102.687 148.231 99.8643 149.516C99.6513 149.601 99.8377 149.973 100.077 149.858V149.858Z" fill="#191919"/>
<path d="M109.052 148.089C114.751 144.635 117.387 137.356 123.326 134.302C123.565 134.188 123.352 133.817 123.113 133.931C117.147 137.014 114.538 144.264 108.839 147.718C108.626 147.86 108.812 148.231 109.052 148.089V148.089Z" fill="#191919"/>
<path d="M116.295 127.737C115.31 126.91 115.47 125.568 116.029 124.512C116.295 123.998 116.695 123.456 117.147 123.142C117.973 122.571 118.745 123.028 119.384 123.627C119.571 123.798 119.864 123.513 119.677 123.313C118.346 122.114 117.094 122.228 116.002 123.77C115.123 125.026 114.671 126.91 116.002 128.051C116.215 128.223 116.508 127.909 116.295 127.737V127.737Z" fill="#191919"/>
<path d="M198.317 106.872C191.02 115.549 189.049 125.083 187.984 130.477C186.04 140.468 188.091 144.464 188.224 163.445C188.277 171.523 187.958 178.059 187.718 182.169C189.369 183.539 199.595 191.703 213.256 189.02C223.376 187.05 229.474 180.257 231.392 177.945C231.844 175.233 232.483 171.237 233.229 166.385C237.17 140.211 239.114 126.938 236.664 117.433C235.2 111.667 231.578 102.534 221.299 93.0858C216.985 94.0562 206.625 97.0247 198.317 106.872Z" fill="#7F7F7F"/>
<path opacity="0.19" d="M205.747 101.62C208.276 109.726 209.635 116.663 210.434 121.743C212.537 135.187 215.706 155.339 206.785 174.862C203.936 181.085 200.607 185.652 198.263 188.477C201.353 189.248 207.478 190.304 214.774 188.278C223.456 185.88 228.888 180.485 231.125 178.031C232.856 167.412 234.241 158.307 235.306 151.2C237.144 138.698 237.57 134.902 237.383 129.564C237.17 122.714 236.877 115.521 233.043 107.757C229.368 100.336 224.201 95.883 221.032 93.5995C218.449 94.0848 214.801 95.1123 210.94 97.51C208.809 98.88 207.078 100.336 205.747 101.62Z" fill="#6C6D6D"/>
<path opacity="0.18" d="M235.999 115.235C235.519 115.264 236.531 123.17 234.96 134.074C232.057 154.254 222.737 168.24 219.142 173.207C216.132 177.346 211.419 183.054 204.522 188.677C206.998 189.077 210.3 189.248 214.082 188.477C223.056 186.679 228.755 180.771 230.939 178.23C231.498 174.748 232.404 169.296 233.549 162.56C236.238 146.804 236.771 144.92 237.197 140.011C238.369 126.624 236.558 115.235 235.999 115.235Z" fill="#6C6D6D"/>
<path d="M151.394 136.443C150.888 136.072 149.876 135.387 149.983 134.816C150.196 133.903 153.258 133.76 155.468 134.16C156.96 134.416 159.676 135.244 162.526 138.127C159.33 138.612 154.723 138.755 151.394 136.443Z" fill="white" stroke="#191919" stroke-width="2"/>
<path d="M226.572 109.099C221.219 107.414 214.961 115.15 214.401 115.892C212.271 118.603 211.765 120.544 209.768 125.796C204.921 138.641 202.391 145.12 197.598 148.488C193.31 151.514 188.81 151.628 187.611 151.628C182.578 151.6 178.424 148.916 170.328 143.55C163.511 139.012 162.818 137.642 158.877 136.5C156.88 135.929 151.021 134.217 146.467 137.556C143.565 139.668 141.78 143.607 142.579 144.606C143.591 145.891 149.024 142.865 149.051 142.979C149.077 143.037 147.479 143.522 146.041 144.892C145.322 145.548 144.044 146.975 144.337 147.489C144.87 148.46 149.716 144.007 154.03 145.663C156.96 146.776 157.12 149.773 160.555 150.943C162.579 151.628 164.496 151.257 165.721 150.886C167.372 153.54 170.168 157.337 174.483 160.79C177.066 162.846 186.173 169.924 198.823 168.868C212.244 167.755 220.393 158.25 222.923 155.31C224.388 153.626 235.013 140.867 233.389 124.255C233.149 121.543 232.111 110.868 226.572 109.099Z" fill="white" stroke="#191919" stroke-width="2"/>
<path opacity="0.25" d="M225.986 109.099C223.962 109.812 226.492 117.547 224.441 127.68C222.497 137.413 217.384 143.978 215.067 146.975C211.951 151 207.877 156.252 200.926 158.935C191.606 162.532 181.14 159.991 174.136 155.282C172.059 153.854 170.302 150.172 165.641 147.289C163.617 146.034 161.993 145.406 160.049 144.635C155.362 142.808 151.154 141.153 146.867 142.608C144.816 143.293 142.979 144.606 143.085 144.835C143.192 145.092 145.562 144.264 147.692 143.493C144.843 146.376 144.31 147.261 144.444 147.489C144.603 147.718 145.455 147.118 147.453 146.376C149.636 145.548 151.154 145.006 152.912 145.463C153.791 145.691 154.43 146.119 154.829 146.376C156.294 147.347 156.534 148.288 157.972 149.402C158.851 150.087 159.649 150.429 160.076 150.6C160.954 150.972 162.818 151.571 165.455 151.057C167.266 153.854 175.654 166.242 190.381 168.526C197.971 169.696 203.962 167.698 206.332 166.87C219.328 162.36 225.906 151.571 227.61 148.574C232.883 139.326 236.478 124.883 231.045 114.493C229.767 111.896 227.37 108.613 225.986 109.099Z" fill="#6C6D6D"/>
<path d="M143.059 144.692C144.47 143.122 146.121 141.98 148.039 141.295C148.411 141.153 148.252 140.553 147.879 140.667C145.882 141.41 144.097 142.608 142.633 144.235C142.366 144.549 142.792 145.006 143.059 144.692V144.692Z" fill="#191919"/>
<path d="M144.017 140.867C145.429 139.183 147.399 138.527 149.37 137.927C149.743 137.813 149.583 137.185 149.21 137.299C147.16 137.956 145.083 138.669 143.618 140.411C143.325 140.725 143.751 141.153 144.017 140.867V140.867Z" fill="#191919"/>
<path opacity="0.29" d="M232.563 121.372C231.658 124.341 230.193 128.622 228.036 133.589C223.749 143.379 219.887 152.199 212.351 158.45C203.057 166.157 191.925 166.813 185.667 166.499C190.061 168.412 193.71 168.811 196.027 168.868C213.656 169.268 226.012 151.371 229.847 143.322C230.513 141.895 231.898 138.926 232.697 134.702C233.735 129.022 233.123 124.255 232.563 121.372Z" fill="#6C6D6D"/>
<path opacity="0.26" d="M154.67 145.377C156.161 146.49 158.265 147.803 160.954 148.831C163.085 149.63 165.029 150.03 166.573 150.229C162.286 151.742 160.289 151.143 159.25 150.229C158.611 149.659 157.945 148.602 155.948 146.633C155.442 146.091 154.989 145.663 154.67 145.377Z" fill="#6C6D6D"/>
<path d="M185.294 51.5267C185.002 53.3535 184.709 55.1803 184.469 57.0927C183.43 64.8564 183.004 72.1921 182.978 79.0139C184.442 78.8427 185.88 78.6714 187.345 78.5287C187.185 80.0415 186.733 85.5789 190.035 91.0592C193.15 96.2255 197.624 98.1094 199.009 98.6232C198.849 101.42 198.716 104.189 198.556 106.986C201.432 104.246 205.347 101.021 210.327 98.1379C214.135 95.9401 217.73 94.4273 220.793 93.3997C217.357 88.8328 216.053 84.5228 215.493 82.0395C214.535 77.758 214.721 74.0759 214.907 70.822C215.094 67.4824 215.547 64.7137 215.946 62.7728C217.198 56.6645 213.922 46.9883 207.398 43.5061C200.953 40.0523 191.34 42.9637 185.294 51.5267Z" fill="white" stroke="#161616" stroke-width="2"/>
<path d="M186.733 78.7285C187.478 78.6143 188.25 78.5287 188.996 78.443C189.262 78.4145 189.262 77.9864 188.996 78.0149C188.197 78.1005 187.425 78.2147 186.626 78.3289C186.386 78.3289 186.493 78.757 186.733 78.7285V78.7285Z" fill="#161616"/>
<path d="M210.753 55.9509C207.531 56.8358 206.945 59.8328 202.871 66.0838C198.743 72.4204 196.133 76.3879 191.473 78.6999C188.463 80.1842 186.972 79.7846 185.641 81.697C183.35 85.008 184.895 90.4598 186.253 93.257C187.824 96.4824 190.221 98.4234 192.192 100.022C194.082 101.535 195.813 102.534 197.038 103.133C195.734 100.992 195.654 100.336 195.813 100.136C196.24 99.6793 198.05 102.134 200.181 101.82C200.793 101.734 201.885 101.363 204.309 97.2816C205.96 94.5129 207.078 92.6005 207.824 89.8604C209.448 83.9804 207.158 82.382 207.824 74.6468C207.93 73.4765 208.676 64.3141 211.712 63.7147C212.804 63.4864 213.922 64.4568 214.455 65.199C215.573 66.7688 215.44 69.2807 214.055 71.4499C214.508 71.1074 218.849 67.9677 218.795 62.8584C218.795 62.0592 218.769 59.1192 216.692 57.2068C214.322 55.0376 211.019 55.8939 210.753 55.9509Z" fill="#736663" stroke="#161616" stroke-width="2"/>
<ellipse cx="189.289" cy="66.7974" rx="1.11847" ry="2.14075" fill="#161616"/>
<ellipse cx="180.767" cy="67.7964" rx="1.11847" ry="2.14075" fill="#161616"/>
<path d="M179.09 64.2856C179.809 63.4007 180.927 63.3151 181.726 64.1714C182.099 64.571 182.658 63.9431 182.285 63.572C181.193 62.4303 179.516 62.4588 178.504 63.6862C178.211 64.1143 178.77 64.7137 179.09 64.2856V64.2856Z" fill="#161616"/>
<path d="M187.824 62.8013C188.756 61.9736 189.981 62.0877 190.78 63.0297C191.127 63.4293 191.686 62.8299 191.34 62.4303C190.221 61.1458 188.49 61.0887 187.238 62.2019C186.866 62.5444 187.425 63.1438 187.824 62.8013V62.8013Z" fill="#161616"/>
<path d="M184.389 54.9234C184.682 52.8683 185.428 49.5002 187.478 46.0179C188.197 44.7905 189.742 42.1931 192.192 40.4234C196.879 37.0838 204.096 37.3407 209.342 41.4509C214.481 45.4755 217.038 52.6685 215.919 59.8043C205.4 58.2059 194.908 56.5789 184.389 54.9234Z" fill="#32D9BA"/>
<path d="M167.186 55.1803C183.35 57.4066 199.542 59.633 215.706 61.8309C217.224 62.0307 217.224 59.4618 215.706 59.262C199.542 57.0356 183.35 54.8092 167.186 52.6114C165.668 52.383 165.668 54.9519 167.186 55.1803V55.1803Z" fill="#32D9BA"/>
<path d="M198.077 38.3397C202.231 39.3102 205.374 42.9066 205.906 47.2167C206.386 50.9844 204.841 54.8092 201.912 57.1497C206.519 57.8062 211.153 58.4913 215.76 59.1478C215.999 57.8348 216.212 55.8367 215.919 53.4962C215.227 48.0159 212.271 44.5051 211.312 43.449C210.274 42.3072 206.599 38.4824 201.14 38.1399C199.888 38.0828 198.823 38.197 198.077 38.3397Z" fill="#333333" fill-opacity="0.1"/>
</svg>
